<svg width="1920" height="960" viewBox="0 0 1920 960" fill="none" xmlns="http://www.w3.org/2000/svg">
<g clip-path="url(#clip0_19_19)">
<path fill-rule="evenodd" clip-rule="evenodd" d="M49.0911 207.847C193.068 263.969 393.309 153.649 440.756 0H1520C1717.49 0 1881.56 143.128 1914.13 331.315C1806.53 427.624 1781.35 631.688 1871.56 750.955C1803.78 875.486 1671.76 960 1520 960H1106.63C1024.56 775.029 687.123 775.155 589.794 960H400C179.086 960 0 780.914 0 560V400C0 330.359 17.797 264.874 49.0911 207.847Z" fill="url(#paint0_linear_19_19)" fill-opacity="0.6"/>
<ellipse cx="40.8036" cy="966.332" rx="286.025" ry="30" transform="rotate(32.12 40.8036 966.332)" fill="black" fill-opacity="0.1"/>
<mask id="path-4-inside-1_19_19" fill="white">
<path fill-rule="evenodd" clip-rule="evenodd" d="M534.875 365.797C534.9 365.822 534.89 365.873 534.849 365.949C534.71 368.243 522.925 404.747 507.61 415.897C495.87 424.445 493.198 423.03 490.932 421.831C490.173 421.429 489.46 421.052 488.467 421.08C485.454 421.166 480.878 425.334 478.867 427.317C504.827 475.826 505.573 536.129 476.185 586.715C478.549 621.823 474.783 659.545 464.774 697.851C465.982 722.898 460.393 757.891 448.048 794.962C425.805 861.756 390.051 910.002 368.188 902.721C364.937 901.638 362.176 899.389 359.904 896.123C298.735 978.234 231.834 1031.77 139.155 1011.82C143.903 1019.7 145.248 1026.85 142.15 1031.79L45.8922 971.357L-50.3659 910.928C-47.2685 905.994 -40.2459 904.098 -31.0846 904.949C-90.0917 829.163 -69.6702 744.428 -20.9342 652.262C-28.5342 652.937 -34.535 651.438 -38.3722 647.489C-54.4306 630.963 -26.5187 577.794 23.9708 528.732C59.6748 494.038 97.1081 470.688 121.649 465.832C144.855 447.543 169.178 432.674 193.805 421.564C194.574 420.261 195.364 418.964 196.173 417.674C226.042 370.096 276.379 343.178 328.576 341.175C329.239 339.932 333.094 332.474 332.059 329.002C331.775 328.051 331.193 327.492 330.574 326.897C328.726 325.12 326.545 323.025 330.988 309.199C336.784 291.163 367.764 268.543 369.899 267.693C369.958 267.63 370.003 267.605 370.035 267.62C371.454 268.303 378.902 306.968 370.835 324.594C364.791 337.8 361.768 337.876 359.205 337.941C358.347 337.963 357.54 337.983 356.689 338.495C355.609 339.143 354.641 340.547 353.823 342.159C377.219 344.896 400.389 352.753 421.668 366.112C439.439 377.268 454.328 391.28 466.113 407.178C468.484 405.342 471.256 402.802 471.741 400.659C471.961 399.691 471.728 398.918 471.48 398.096C470.739 395.642 469.865 392.747 480.515 382.873C494.73 369.693 533.783 364.663 534.875 365.797Z"/>
</mask>
<path fill-rule="evenodd" clip-rule="evenodd" d="M534.875 365.797C534.9 365.822 534.89 365.873 534.849 365.949C534.71 368.243 522.925 404.747 507.61 415.897C495.87 424.445 493.198 423.03 490.932 421.831C490.173 421.429 489.46 421.052 488.467 421.08C485.454 421.166 480.878 425.334 478.867 427.317C504.827 475.826 505.573 536.129 476.185 586.715C478.549 621.823 474.783 659.545 464.774 697.851C465.982 722.898 460.393 757.891 448.048 794.962C425.805 861.756 390.051 910.002 368.188 902.721C364.937 901.638 362.176 899.389 359.904 896.123C298.735 978.234 231.834 1031.77 139.155 1011.82C143.903 1019.7 145.248 1026.85 142.15 1031.79L45.8922 971.357L-50.3659 910.928C-47.2685 905.994 -40.2459 904.098 -31.0846 904.949C-90.0917 829.163 -69.6702 744.428 -20.9342 652.262C-28.5342 652.937 -34.535 651.438 -38.3722 647.489C-54.4306 630.963 -26.5187 577.794 23.9708 528.732C59.6748 494.038 97.1081 470.688 121.649 465.832C144.855 447.543 169.178 432.674 193.805 421.564C194.574 420.261 195.364 418.964 196.173 417.674C226.042 370.096 276.379 343.178 328.576 341.175C329.239 339.932 333.094 332.474 332.059 329.002C331.775 328.051 331.193 327.492 330.574 326.897C328.726 325.12 326.545 323.025 330.988 309.199C336.784 291.163 367.764 268.543 369.899 267.693C369.958 267.63 370.003 267.605 370.035 267.62C371.454 268.303 378.902 306.968 370.835 324.594C364.791 337.8 361.768 337.876 359.205 337.941C358.347 337.963 357.54 337.983 356.689 338.495C355.609 339.143 354.641 340.547 353.823 342.159C377.219 344.896 400.389 352.753 421.668 366.112C439.439 377.268 454.328 391.28 466.113 407.178C468.484 405.342 471.256 402.802 471.741 400.659C471.961 399.691 471.728 398.918 471.48 398.096C470.739 395.642 469.865 392.747 480.515 382.873C494.73 369.693 533.783 364.663 534.875 365.797Z" fill="#686E69"/>
<path d="M534.849 365.949L531.345 364.019L530.91 364.808L530.856 365.707L534.849 365.949ZM534.875 365.797L537.756 363.021L537.755 363.021L534.875 365.797ZM507.61 415.897L505.256 412.664L505.256 412.664L507.61 415.897ZM490.932 421.831L492.803 418.296L490.932 421.831ZM488.467 421.08L488.353 417.082L488.352 417.082L488.467 421.08ZM478.867 427.317L476.058 424.468L473.929 426.568L475.34 429.204L478.867 427.317ZM476.185 586.715L472.726 584.706L472.112 585.764L472.194 586.984L476.185 586.715ZM464.774 697.851L460.904 696.839L460.749 697.432L460.779 698.043L464.774 697.851ZM448.048 794.962L451.844 796.226L448.048 794.962ZM368.188 902.721L366.924 906.516L366.924 906.516L368.188 902.721ZM359.904 896.123L363.188 893.839L360.016 889.278L356.697 893.733L359.904 896.123ZM139.155 1011.82L139.997 1007.91L130.958 1005.97L135.729 1013.89L139.155 1011.82ZM142.15 1031.79L140.023 1035.17L143.411 1037.3L145.538 1033.91L142.15 1031.79ZM-50.3659 910.928L-53.7536 908.801L-55.8804 912.189L-52.4926 914.316L-50.3659 910.928ZM-31.0846 904.949L-31.4543 908.932L-22.2486 909.786L-27.9284 902.492L-31.0846 904.949ZM-20.9342 652.262L-17.3981 654.132L-13.9585 647.627L-21.2878 648.278L-20.9342 652.262ZM-38.3722 647.489L-35.5035 644.701L-35.5035 644.701L-38.3722 647.489ZM23.9708 528.732L21.1832 525.864L23.9708 528.732ZM121.649 465.832L122.426 469.756L123.369 469.569L124.125 468.973L121.649 465.832ZM193.805 421.564L195.449 425.211L196.605 424.689L197.249 423.598L193.805 421.564ZM328.576 341.175L328.729 345.172L331.024 345.084L332.105 343.057L328.576 341.175ZM332.059 329.002L328.225 330.145L332.059 329.002ZM330.574 326.897L327.803 329.781L327.803 329.781L330.574 326.897ZM330.988 309.199L334.796 310.423L334.796 310.423L330.988 309.199ZM369.899 267.693L371.378 271.41L372.215 271.076L372.829 270.417L369.899 267.693ZM370.035 267.62L371.77 264.016L371.77 264.016L370.035 267.62ZM370.835 324.594L367.198 322.929L367.198 322.929L370.835 324.594ZM359.205 337.941L359.306 341.94L359.307 341.94L359.205 337.941ZM356.689 338.495L354.629 335.066L354.629 335.066L356.689 338.495ZM353.823 342.159L350.256 340.348L347.658 345.465L353.358 346.132L353.823 342.159ZM466.113 407.178L462.899 409.56L465.332 412.842L468.562 410.341L466.113 407.178ZM471.741 400.659L475.643 401.542L475.643 401.542L471.741 400.659ZM471.48 398.096L475.309 396.941L475.309 396.941L471.48 398.096ZM480.515 382.873L477.795 379.94L480.515 382.873ZM538.353 367.878C538.46 367.683 538.71 367.204 538.826 366.548C538.941 365.895 539.022 364.336 537.756 363.021L531.995 368.572C530.753 367.283 530.841 365.762 530.948 365.16C531.054 364.554 531.279 364.139 531.345 364.019L538.353 367.878ZM509.965 419.131C514.366 415.927 518.289 411.09 521.664 405.888C525.069 400.639 528.076 394.765 530.566 389.248C533.061 383.721 535.069 378.482 536.466 374.468C537.164 372.461 537.716 370.741 538.103 369.428C538.296 368.774 538.455 368.197 538.572 367.723C538.66 367.367 538.808 366.75 538.841 366.191L530.856 365.707C530.873 365.434 530.912 365.372 530.805 365.808C530.726 366.126 530.603 366.58 530.43 367.165C530.086 368.331 529.575 369.926 528.91 371.839C527.58 375.662 525.658 380.677 523.275 385.956C520.887 391.245 518.068 396.732 514.952 401.534C511.805 406.385 508.513 410.292 505.256 412.664L509.965 419.131ZM489.06 425.366C489.6 425.652 490.629 426.216 491.972 426.516C493.381 426.83 494.907 426.816 496.628 426.415C499.866 425.658 504.009 423.467 509.965 419.131L505.256 412.664C499.471 416.875 496.408 418.251 494.808 418.624C494.11 418.787 493.809 418.729 493.713 418.708C493.551 418.672 493.396 418.61 492.803 418.296L489.06 425.366ZM488.582 425.078C488.558 425.079 488.523 425.077 488.484 425.071C488.448 425.064 488.432 425.058 488.449 425.063C488.469 425.071 488.521 425.091 488.624 425.141C488.737 425.195 488.859 425.259 489.06 425.366L492.803 418.296C492.095 417.921 490.522 417.019 488.353 417.082L488.582 425.078ZM481.675 430.165C482.621 429.233 484.111 427.847 485.658 426.712C486.432 426.144 487.141 425.698 487.741 425.403C488.39 425.085 488.646 425.077 488.582 425.078L488.352 417.082C486.782 417.127 485.336 417.672 484.217 418.221C483.048 418.794 481.923 419.53 480.924 420.262C478.928 421.728 477.124 423.418 476.058 424.468L481.675 430.165ZM475.34 429.204C500.671 476.537 501.391 535.364 472.726 584.706L479.644 588.725C509.754 536.894 508.983 475.114 482.394 425.429L475.34 429.204ZM472.194 586.984C474.527 621.622 470.815 658.911 460.904 696.839L468.644 698.862C478.752 660.179 482.572 622.024 480.176 586.447L472.194 586.984ZM460.779 698.043C461.955 722.445 456.499 756.925 444.253 793.698L451.844 796.226C464.288 758.857 470.008 723.352 468.769 697.658L460.779 698.043ZM444.253 793.698C433.228 826.806 418.9 855.16 404.762 874.238C397.679 883.795 390.782 890.836 384.534 895.026C378.229 899.254 373.226 900.183 369.452 898.926L366.924 906.516C374.081 908.9 381.746 906.528 388.989 901.67C396.289 896.775 403.82 888.945 411.189 879.001C425.955 859.077 440.626 829.911 451.844 796.226L444.253 793.698ZM369.452 898.926C367.187 898.172 365.078 896.557 363.188 893.839L356.62 898.407C359.273 902.22 362.686 905.105 366.924 906.516L369.452 898.926ZM356.697 893.733C295.725 975.579 230.223 1027.33 139.997 1007.91L138.314 1015.73C233.444 1036.2 301.745 980.89 363.112 898.513L356.697 893.733ZM135.729 1013.89C140.312 1021.49 140.577 1026.77 138.762 1029.66L145.538 1033.91C149.918 1026.94 147.494 1017.91 142.582 1009.76L135.729 1013.89ZM144.277 1028.4L48.0189 967.97L43.7654 974.745L140.023 1035.17L144.277 1028.4ZM48.0189 967.97L-48.2391 907.54L-52.4926 914.316L43.7654 974.745L48.0189 967.97ZM-46.9781 913.055C-45.1633 910.164 -40.298 908.111 -31.4543 908.932L-30.7148 900.966C-40.1938 900.086 -49.3737 901.824 -53.7536 908.801L-46.9781 913.055ZM-27.9284 902.492C-85.3732 828.712 -65.9962 746.037 -17.3981 654.132L-24.4703 650.393C-73.3441 742.819 -94.8101 829.614 -34.2407 907.406L-27.9284 902.492ZM-21.2878 648.278C-28.296 648.9 -32.854 647.428 -35.5035 644.701L-41.2409 650.276C-36.216 655.448 -28.7725 656.974 -20.5805 656.247L-21.2878 648.278ZM-35.5035 644.701C-38.2758 641.848 -39.6135 636.939 -38.5456 629.423C-37.4873 621.975 -34.1437 612.703 -28.6145 602.171C-17.5775 581.146 1.73182 555.92 26.7583 531.601L21.1832 525.864C-4.27973 550.607 -24.1711 576.495 -35.6978 598.452C-41.4505 609.411 -45.2295 619.596 -46.4661 628.298C-47.693 636.933 -46.4979 644.866 -41.2409 650.276L-35.5035 644.701ZM26.7583 531.601C44.44 514.419 62.514 500.083 79.1484 489.464C95.8447 478.806 110.853 472.046 122.426 469.756L120.873 461.908C107.904 464.474 91.9254 471.817 74.8438 482.721C57.7002 493.665 39.2056 508.351 21.1832 525.864L26.7583 531.601ZM124.125 468.973C147.094 450.871 171.14 436.177 195.449 425.211L192.16 417.918C167.216 429.171 142.616 444.214 119.173 462.69L124.125 468.973ZM197.249 423.598C198 422.326 198.771 421.06 199.561 419.801L192.786 415.547C191.957 416.868 191.148 418.196 190.36 419.531L197.249 423.598ZM199.561 419.801C228.698 373.39 277.797 347.127 328.729 345.172L328.422 337.178C274.961 339.23 223.387 366.803 192.786 415.547L199.561 419.801ZM332.105 343.057C332.47 342.373 333.693 340.02 334.701 337.325C335.203 335.981 335.692 334.448 335.976 332.931C336.243 331.506 336.422 329.639 335.892 327.86L328.225 330.145C328.213 330.102 328.298 330.469 328.113 331.457C327.945 332.354 327.622 333.414 327.207 334.524C326.38 336.737 325.345 338.734 325.046 339.293L332.105 343.057ZM335.892 327.86C335.272 325.78 333.924 324.568 333.346 324.013L327.803 329.781C327.967 329.939 328.066 330.035 328.153 330.124C328.233 330.207 328.268 330.25 328.281 330.267C328.292 330.281 328.281 330.268 328.263 330.236C328.245 330.201 328.232 330.168 328.225 330.145L335.892 327.86ZM333.346 324.013C332.862 323.548 332.755 323.42 332.67 323.278C332.619 323.193 332.47 322.925 332.406 322.211C332.26 320.575 332.607 317.235 334.796 310.423L327.18 307.975C324.926 314.989 324.142 319.61 324.438 322.922C324.595 324.682 325.059 326.135 325.799 327.375C326.504 328.557 327.362 329.358 327.803 329.781L333.346 324.013ZM334.796 310.423C336.029 306.587 338.709 302.237 342.331 297.73C345.916 293.267 350.245 288.872 354.52 284.949C358.789 281.033 362.949 277.638 366.164 275.177C367.772 273.947 369.127 272.962 370.127 272.271C370.629 271.924 371.021 271.664 371.299 271.49C371.679 271.251 371.632 271.309 371.378 271.41L368.42 263.977C367.899 264.184 367.359 264.518 367.048 264.713C366.635 264.972 366.137 265.303 365.576 265.691C364.45 266.47 362.99 267.533 361.302 268.824C357.927 271.408 353.58 274.954 349.112 279.054C344.651 283.147 340.014 287.841 336.095 292.719C332.211 297.552 328.845 302.793 327.18 307.975L334.796 310.423ZM372.829 270.417C372.736 270.516 372.411 270.86 371.87 271.151C371.331 271.441 369.914 272.001 368.301 271.225L371.77 264.016C370.125 263.225 368.669 263.79 368.084 264.104C367.497 264.419 367.121 264.807 366.969 264.97L372.829 270.417ZM368.301 271.225C367.627 270.901 367.229 270.469 367.078 270.294C366.898 270.085 366.789 269.909 366.743 269.831C366.651 269.676 366.625 269.595 366.655 269.67C366.707 269.799 366.81 270.099 366.956 270.619C367.239 271.633 367.591 273.152 367.966 275.09C368.711 278.95 369.504 284.26 370.007 290.097C370.511 295.941 370.718 302.232 370.322 308.082C369.922 313.988 368.924 319.158 367.198 322.929L374.472 326.259C376.779 321.217 377.875 314.944 378.304 308.622C378.736 302.243 378.504 295.521 377.977 289.41C377.45 283.292 376.619 277.706 375.821 273.573C375.423 271.515 375.024 269.764 374.66 268.464C374.482 267.827 374.288 267.209 374.078 266.688C373.978 266.438 373.83 266.099 373.628 265.757C373.526 265.585 373.364 265.333 373.134 265.066C372.933 264.833 372.488 264.362 371.77 264.016L368.301 271.225ZM367.198 322.929C364.22 329.436 362.224 332.136 361.013 333.246C360.484 333.73 360.193 333.827 360.099 333.856C359.94 333.904 359.775 333.925 359.104 333.942L359.307 341.94C359.917 341.924 361.091 341.912 362.409 341.515C363.791 341.098 365.114 340.338 366.417 339.145C368.869 336.898 371.406 332.958 374.472 326.259L367.198 322.929ZM359.104 333.942C358.302 333.963 356.49 333.948 354.629 335.066L358.749 341.924C358.729 341.936 358.697 341.952 358.66 341.965C358.625 341.977 358.608 341.979 358.625 341.976C358.647 341.972 358.702 341.964 358.817 341.957C358.941 341.95 359.079 341.946 359.306 341.94L359.104 333.942ZM354.629 335.066C352.507 336.341 351.113 338.659 350.256 340.348L357.389 343.97C357.73 343.298 358.056 342.765 358.347 342.379C358.658 341.969 358.809 341.888 358.749 341.924L354.629 335.066ZM353.358 346.132C376.176 348.801 398.777 356.464 419.541 369.499L423.795 362.724C402.002 349.043 378.262 340.991 354.287 338.186L353.358 346.132ZM419.541 369.499C436.884 380.387 451.406 394.056 462.899 409.56L469.326 404.796C457.25 388.505 441.994 374.149 423.795 362.724L419.541 369.499ZM467.84 399.776C467.841 399.772 467.647 400.294 466.701 401.314C465.86 402.222 464.763 403.165 463.664 404.016L468.562 410.341C469.834 409.356 471.309 408.111 472.567 406.754C473.722 405.509 475.157 403.689 475.643 401.542L467.84 399.776ZM467.65 399.252C467.716 399.47 467.755 399.602 467.787 399.723C467.816 399.834 467.826 399.889 467.829 399.91C467.832 399.927 467.828 399.911 467.829 399.874C467.83 399.835 467.835 399.799 467.84 399.776L475.643 401.542C476.122 399.426 475.541 397.708 475.309 396.941L467.65 399.252ZM477.795 379.94C472.393 384.949 469.445 388.592 468.079 391.624C467.353 393.235 467.046 394.729 467.082 396.173C467.118 397.549 467.474 398.667 467.65 399.252L475.309 396.941C475.115 396.298 475.084 396.134 475.08 395.969C475.077 395.87 475.078 395.564 475.373 394.91C476.047 393.412 477.987 390.671 483.235 385.806L477.795 379.94ZM537.755 363.021C537.202 362.447 536.615 362.172 536.331 362.054C536.005 361.919 535.715 361.844 535.52 361.801C535.132 361.716 534.764 361.682 534.495 361.665C533.934 361.629 533.287 361.638 532.626 361.668C531.278 361.73 529.49 361.899 527.41 362.166C523.236 362.701 517.67 363.661 511.695 365.075C505.726 366.487 499.269 368.372 493.346 370.78C487.476 373.165 481.861 376.17 477.795 379.94L483.235 385.806C486.276 382.986 490.873 380.42 496.358 378.191C501.789 375.984 507.829 374.211 513.537 372.86C519.239 371.511 524.529 370.601 528.429 370.101C530.386 369.849 531.94 369.708 532.991 369.66C533.531 369.636 533.848 369.64 533.987 369.649C534.067 369.654 533.982 369.654 533.807 369.616C533.718 369.596 533.517 369.548 533.262 369.442C533.048 369.353 532.514 369.111 531.995 368.572L537.755 363.021Z" fill="#3D3E45" mask="url(#path-4-inside-1_19_19)"/>
<path d="M9.42763 922.562C22.5483 930.799 32.9386 940.45 39.1579 949.32C42.2701 953.758 44.2793 957.918 45.1155 961.541C45.7377 964.237 45.6952 966.549 45.0555 968.47L-47.4023 910.427C-45.9502 909.016 -43.8857 907.972 -41.1875 907.361C-37.5613 906.54 -32.9417 906.542 -27.5916 907.415C-16.9002 909.162 -3.69304 914.325 9.42763 922.562Z" fill="#686E69" stroke="#3D3E45" stroke-width="4"/>
<path d="M105.686 982.992C118.806 991.229 129.197 1000.88 135.416 1009.75C138.528 1014.19 140.537 1018.35 141.373 1021.97C141.996 1024.67 141.953 1026.98 141.313 1028.9L48.8557 970.856C50.3078 969.445 52.3722 968.402 55.0705 967.791C58.6967 966.969 63.3163 966.971 68.6664 967.845C79.3578 969.591 92.565 974.755 105.686 982.992Z" fill="#686E69" stroke="#3D3E45" stroke-width="4"/>
<path fill-rule="evenodd" clip-rule="evenodd" d="M349.258 918.775C358.615 924.649 370.962 921.825 376.836 912.468C382.71 903.111 379.887 890.764 370.53 884.89C369.591 884.301 368.622 883.799 367.632 883.382L343.875 913.823C345.308 915.738 347.111 917.427 349.258 918.775Z" fill="#686E69" stroke="#3D3E45" stroke-width="4"/>
<circle cx="302.502" cy="402.29" r="22.559" transform="rotate(32.12 302.502 402.29)" fill="white" stroke="#3D3E45" stroke-width="4"/>
<circle cx="439.994" cy="488.606" r="22.559" transform="rotate(32.12 439.994 488.606)" fill="white" stroke="#3D3E45" stroke-width="4"/>
<circle cx="302.502" cy="402.29" r="8.70929" transform="rotate(32.12 302.502 402.29)" fill="#3D3E45"/>
<circle cx="439.995" cy="488.606" r="8.70929" transform="rotate(32.12 439.995 488.606)" fill="#3D3E45"/>
<ellipse cx="358.846" cy="466.18" rx="7.67314" ry="3.83655" transform="rotate(32.12 358.846 466.18)" fill="#3D3E45"/>
<ellipse cx="365.325" cy="455.861" rx="34.1404" ry="12.5907" transform="rotate(32.12 365.325 455.861)" fill="#3D3E45"/>
<path d="M257.063 432.542C257.216 432.662 257.378 432.789 257.549 432.923C259.078 434.123 261.302 435.862 264.086 438.021C269.653 442.339 277.459 448.336 286.415 455.054C304.313 468.483 326.852 484.83 345.298 496.411C363.745 507.991 388.263 521.185 408.135 531.469C418.079 536.615 426.872 541.038 433.18 544.176C436.334 545.745 438.867 546.992 440.612 547.848C440.807 547.943 440.992 548.034 441.167 548.119C438.175 551.656 433.517 554.079 427.31 555.296C420.087 556.713 410.96 556.45 400.493 554.52C379.57 550.663 353.715 540.221 327.949 524.046C302.184 507.871 281.543 489.122 268.976 471.956C262.689 463.368 258.486 455.262 256.622 448.141C255.021 442.022 255.178 436.773 257.063 432.542Z" fill="white" stroke="#3D3E45" stroke-width="4"/>
<line x1="283.766" y1="452.277" x2="270.486" y2="473.43" stroke="#3D3E45" stroke-width="4"/>
<line x1="312.209" y1="473.716" x2="296.301" y2="499.529" stroke="#3D3E45" stroke-width="4"/>
<line x1="378.442" y1="515.296" x2="362.535" y2="541.11" stroke="#3D3E45" stroke-width="4"/>
<line x1="412.168" y1="532.886" x2="398.889" y2="554.039" stroke="#3D3E45" stroke-width="4"/>
<line x1="343.035" y1="495.127" x2="325.912" y2="522.403" stroke="#3D3E45" stroke-width="4"/>
<path d="M454.62 534.454L558.482 557.249" stroke="#3D3E45" stroke-width="5"/>
<path d="M451.236 558.061L536.747 601.737" stroke="#3D3E45" stroke-width="5"/>
<path d="M428.712 569.651L505.046 646.163" stroke="#3D3E45" stroke-width="5"/>
<path d="M254.67 408.928L189.002 325.295" stroke="#3D3E45" stroke-width="5"/>
<path d="M234.88 422.236L158.38 364.204" stroke="#3D3E45" stroke-width="5"/>
<path d="M234.23 447.559L132.148 412.063" stroke="#3D3E45" stroke-width="5"/>
<ellipse cx="190.046" cy="727.103" rx="203.108" ry="231.149" transform="rotate(32.12 190.046 727.103)" fill="#D5D2AA"/>
<path d="M244.291 654.71C244.291 654.71 200.454 662.587 201.09 657.864C201.727 653.14 252.858 625.854 262.586 633.358C272.314 640.862 264.921 688.621 260.649 692.459C256.376 696.297 244.291 654.71 244.291 654.71Z" fill="#686E69"/>
<path d="M63.1063 606.359C63.1063 606.359 27.6693 620.447 26.1338 617.402C24.5984 614.358 57.8825 586.776 69.8613 589.35C81.8401 591.925 96.5146 622.906 94.4263 626.171C92.338 629.436 63.1063 606.359 63.1063 606.359Z" fill="#686E69"/>
<path d="M156.508 630.02C156.508 630.02 121.071 644.108 119.535 641.063C118 638.019 151.284 610.437 163.263 613.012C175.241 615.586 189.916 646.567 187.828 649.832C185.739 653.097 156.508 630.02 156.508 630.02Z" fill="#686E69"/>
<path d="M147.01 560.026C147.01 560.026 107.68 567.134 107.228 563.336C106.775 559.539 148.631 536.744 159.413 542.582C170.195 548.42 173.874 586.83 170.722 589.984C167.571 593.138 147.01 560.026 147.01 560.026Z" fill="#686E69"/>
<path d="M244.056 562.77C244.056 562.77 207.785 571.256 207.515 567.541C207.246 563.826 246.427 539.827 256.074 545.153C265.721 550.48 267.623 588.089 264.618 591.309C261.612 594.529 244.056 562.77 244.056 562.77Z" fill="#686E69"/>
<path d="M336.21 617.356C336.21 617.356 301.174 623.099 300.726 619.781C300.278 616.463 337.385 597.066 347.081 602.284C356.776 607.502 360.508 641.051 357.731 643.765C354.953 646.48 336.21 617.356 336.21 617.356Z" fill="#686E69"/>
<path d="M377.247 705.605C377.247 705.605 348.025 685.443 350.003 682.742C351.981 680.041 392.167 691.804 395.532 702.288C398.897 712.771 378.317 739.527 374.433 739.556C370.55 739.586 377.247 705.605 377.247 705.605Z" fill="#686E69"/>
<path d="M311.707 702.782C311.707 702.782 277.351 693.827 278.287 690.613C279.222 687.398 321.007 684.71 327.755 693.411C334.502 702.112 324.312 734.293 320.673 735.648C317.033 737.004 311.707 702.782 311.707 702.782Z" fill="#686E69"/>
<path d="M354.721 778.065C354.721 778.065 330.193 764.225 331.563 761.95C332.933 759.675 365.521 766.095 368.929 774.137C372.337 782.179 357.991 804.788 354.925 805.088C351.859 805.389 354.721 778.065 354.721 778.065Z" fill="#686E69"/>
<path d="M-31.9187 678.619C-31.9187 678.619 -1.68835 614.44 25.979 578.603C55.9125 539.831 112.01 493.286 112.01 493.286" stroke="#3D3E45" stroke-width="4"/>
<path d="M343.417 914.249C343.417 914.249 388.08 859.13 408.331 818.638C430.241 774.828 447.78 704.078 447.78 704.078" stroke="#3D3E45" stroke-width="4"/>
<path d="M344.605 835.767C286.394 876.281 241.9 889.963 170.377 892.631C101.971 895.183 -25.2057 791.136 -0.355005 852.93C24.4957 914.724 1.22508 941.899 1.22508 941.899L142.074 1030.32C142.074 1030.32 143.43 1023.36 141.205 1018.01C138.355 1011.15 138.618 1010.11 138.618 1010.11C138.618 1010.11 220.265 1037.82 305.611 957.036C316 947.203 329.025 933.146 344.555 914.227C351.546 928.072 379.233 925.85 381.635 900.287C418.422 876.651 434.593 827.896 448.975 791.519C452.051 783.74 468.876 721.59 462.768 697.401C475.384 654.29 473.223 626.936 475.565 587.165C451.537 687.207 410.638 789.811 344.605 835.767Z" fill="black" fill-opacity="0.2"/>
<ellipse cx="1537.59" cy="963.914" rx="248.007" ry="30" fill="black" fill-opacity="0.1"/>
<mask id="path-41-inside-2_19_19" fill="white">
<path fill-rule="evenodd" clip-rule="evenodd" d="M1622.08 192.603C1622.12 192.612 1622.14 192.66 1622.14 192.746C1623.24 194.763 1632.67 231.946 1625.63 249.532C1620.23 263.014 1617.22 263.237 1614.66 263.425C1613.8 263.488 1613 263.548 1612.17 264.1C1609.67 265.775 1608.01 271.737 1607.36 274.486C1655.14 301.768 1687.83 352.444 1689.84 410.913C1732.44 469.61 1758.89 551.565 1758.89 642.241C1758.89 786.367 1745.11 908.46 1630.42 950.149C1638.63 954.299 1643.57 959.639 1643.57 965.464H1529.92H1416.27C1416.27 959.639 1421.21 954.299 1429.42 950.149C1339.15 917.336 1311.39 834.713 1303.66 730.742C1297.58 735.354 1291.7 737.275 1286.35 735.971C1263.97 730.513 1259.34 670.641 1276.01 602.244C1287.8 553.877 1307.09 514.198 1325.3 497.037C1335.23 469.208 1347.92 443.683 1362.87 421.18C1362.83 419.667 1362.81 418.149 1362.81 416.626C1362.81 360.449 1391.13 310.888 1434.27 281.438C1434.17 280.033 1433.47 271.667 1430.75 269.277C1430 268.622 1429.21 268.458 1428.37 268.283C1425.86 267.762 1422.9 267.147 1419.31 253.074C1414.63 234.718 1428.84 199.088 1430.2 197.233C1430.22 197.148 1430.24 197.103 1430.28 197.099C1431.84 196.923 1458.71 225.709 1461.25 244.927C1463.15 259.324 1460.63 260.996 1458.49 262.414C1457.78 262.889 1457.1 263.335 1456.66 264.221C1456.09 265.344 1456.01 267.048 1456.18 268.848C1477.45 258.726 1501.25 253.062 1526.37 253.062C1547.36 253.062 1567.42 257.013 1585.85 264.212C1586.88 261.396 1587.88 257.771 1587.15 255.698C1586.82 254.761 1586.21 254.231 1585.57 253.666C1583.63 251.981 1581.35 249.994 1585.12 235.969C1590.16 217.249 1620.56 192.224 1622.08 192.603Z"/>
</mask>
<path fill-rule="evenodd" clip-rule="evenodd" d="M1622.08 192.603C1622.12 192.612 1622.14 192.66 1622.14 192.746C1623.24 194.763 1632.67 231.946 1625.63 249.532C1620.23 263.014 1617.22 263.237 1614.66 263.425C1613.8 263.488 1613 263.548 1612.17 264.1C1609.67 265.775 1608.01 271.737 1607.36 274.486C1655.14 301.768 1687.83 352.444 1689.84 410.913C1732.44 469.61 1758.89 551.565 1758.89 642.241C1758.89 786.367 1745.11 908.46 1630.42 950.149C1638.63 954.299 1643.57 959.639 1643.57 965.464H1529.92H1416.27C1416.27 959.639 1421.21 954.299 1429.42 950.149C1339.15 917.336 1311.39 834.713 1303.66 730.742C1297.58 735.354 1291.7 737.275 1286.35 735.971C1263.97 730.513 1259.34 670.641 1276.01 602.244C1287.8 553.877 1307.09 514.198 1325.3 497.037C1335.23 469.208 1347.92 443.683 1362.87 421.18C1362.83 419.667 1362.81 418.149 1362.81 416.626C1362.81 360.449 1391.13 310.888 1434.27 281.438C1434.17 280.033 1433.47 271.667 1430.75 269.277C1430 268.622 1429.21 268.458 1428.37 268.283C1425.86 267.762 1422.9 267.147 1419.31 253.074C1414.63 234.718 1428.84 199.088 1430.2 197.233C1430.22 197.148 1430.24 197.103 1430.28 197.099C1431.84 196.923 1458.71 225.709 1461.25 244.927C1463.15 259.324 1460.63 260.996 1458.49 262.414C1457.78 262.889 1457.1 263.335 1456.66 264.221C1456.09 265.344 1456.01 267.048 1456.18 268.848C1477.45 258.726 1501.25 253.062 1526.37 253.062C1547.36 253.062 1567.42 257.013 1585.85 264.212C1586.88 261.396 1587.88 257.771 1587.15 255.698C1586.82 254.761 1586.21 254.231 1585.57 253.666C1583.63 251.981 1581.35 249.994 1585.12 235.969C1590.16 217.249 1620.56 192.224 1622.08 192.603Z" fill="#686E69"/>
<path d="M1622.14 192.746L1618.15 192.975L1618.2 193.874L1618.63 194.665L1622.14 192.746ZM1622.08 192.603L1623.05 188.721L1623.05 188.721L1622.08 192.603ZM1625.63 249.532L1621.92 248.045V248.045L1625.63 249.532ZM1614.66 263.425L1614.37 259.436L1614.66 263.425ZM1612.17 264.1L1609.95 260.774L1609.95 260.774L1612.17 264.1ZM1607.36 274.486L1603.47 273.567L1602.78 276.477L1605.38 277.96L1607.36 274.486ZM1689.84 410.913L1685.84 411.05L1685.88 412.272L1686.6 413.262L1689.84 410.913ZM1630.42 950.149L1629.06 946.389L1620.37 949.548L1628.62 953.718L1630.42 950.149ZM1643.57 965.464V969.464H1647.57V965.464H1643.57ZM1416.27 965.464H1412.27V969.464H1416.27V965.464ZM1429.42 950.149L1431.22 953.718L1439.47 949.548L1430.78 946.389L1429.42 950.149ZM1303.66 730.742L1307.65 730.446L1307.1 723.108L1301.24 727.556L1303.66 730.742ZM1286.35 735.971L1287.3 732.085H1287.3L1286.35 735.971ZM1276.01 602.244L1272.13 601.297L1276.01 602.244ZM1325.3 497.037L1328.04 499.947L1328.74 499.287L1329.06 498.381L1325.3 497.037ZM1362.87 421.18L1366.2 423.394L1366.9 422.338L1366.87 421.071L1362.87 421.18ZM1434.27 281.438L1436.53 284.742L1438.42 283.447L1438.26 281.156L1434.27 281.438ZM1430.75 269.277L1428.11 272.283L1430.75 269.277ZM1428.37 268.283L1427.56 272.2H1427.56L1428.37 268.283ZM1419.31 253.074L1423.19 252.086V252.086L1419.31 253.074ZM1430.2 197.233L1433.43 199.594L1433.96 198.867L1434.13 197.982L1430.2 197.233ZM1430.28 197.099L1429.83 193.124L1429.83 193.124L1430.28 197.099ZM1461.25 244.927L1457.28 245.451V245.451L1461.25 244.927ZM1458.49 262.414L1460.7 265.747L1460.7 265.747L1458.49 262.414ZM1456.66 264.221L1453.09 262.412L1453.09 262.412L1456.66 264.221ZM1456.18 268.848L1452.19 269.211L1452.71 274.926L1457.89 272.46L1456.18 268.848ZM1585.85 264.212L1584.39 267.938L1588.2 269.424L1589.61 265.588L1585.85 264.212ZM1587.15 255.698L1590.92 254.371L1590.92 254.371L1587.15 255.698ZM1585.57 253.666L1588.19 250.652V250.652L1585.57 253.666ZM1585.12 235.969L1581.26 234.931L1585.12 235.969ZM1626.14 192.518C1626.12 192.295 1626.08 191.756 1625.83 191.139C1625.58 190.525 1624.82 189.161 1623.05 188.721L1621.12 196.486C1619.38 196.054 1618.65 194.719 1618.42 194.152C1618.19 193.583 1618.16 193.111 1618.15 192.975L1626.14 192.518ZM1629.34 251.019C1631.37 245.966 1632.12 239.783 1632.21 233.583C1632.3 227.326 1631.73 220.753 1630.9 214.756C1630.08 208.749 1628.99 203.244 1628.04 199.102C1627.57 197.031 1627.12 195.28 1626.75 193.962C1626.56 193.306 1626.39 192.733 1626.24 192.27C1626.12 191.921 1625.92 191.32 1625.65 190.828L1618.63 194.665C1618.5 194.425 1618.5 194.351 1618.64 194.777C1618.75 195.089 1618.88 195.538 1619.05 196.126C1619.38 197.296 1619.79 198.919 1620.24 200.892C1621.15 204.838 1622.19 210.107 1622.98 215.845C1623.77 221.594 1624.3 227.74 1624.21 233.464C1624.13 239.245 1623.42 244.305 1621.92 248.045L1629.34 251.019ZM1614.95 267.414C1615.56 267.369 1616.74 267.301 1618.03 266.84C1619.39 266.357 1620.68 265.534 1621.92 264.279C1624.26 261.917 1626.61 257.858 1629.34 251.019L1621.92 248.045C1619.26 254.688 1617.39 257.481 1616.24 258.648C1615.73 259.158 1615.45 259.268 1615.35 259.301C1615.2 259.357 1615.03 259.387 1614.37 259.436L1614.95 267.414ZM1614.4 267.425C1614.38 267.438 1614.35 267.456 1614.31 267.47C1614.28 267.485 1614.26 267.487 1614.28 267.483C1614.3 267.479 1614.35 267.468 1614.47 267.455C1614.59 267.442 1614.73 267.431 1614.95 267.414L1614.37 259.436C1613.57 259.495 1611.75 259.568 1609.95 260.774L1614.4 267.425ZM1611.25 275.406C1611.56 274.113 1612.08 272.148 1612.79 270.363C1613.14 269.471 1613.51 268.716 1613.86 268.147C1614.24 267.532 1614.45 267.39 1614.4 267.425L1609.95 260.774C1608.64 261.648 1607.71 262.878 1607.05 263.938C1606.37 265.045 1605.81 266.267 1605.35 267.418C1604.44 269.721 1603.81 272.111 1603.47 273.567L1611.25 275.406ZM1605.38 277.96C1652 304.58 1683.88 354.02 1685.84 411.05L1693.84 410.776C1691.78 350.869 1658.28 298.955 1609.34 271.013L1605.38 277.96ZM1762.89 642.241C1762.89 550.825 1736.23 468.023 1693.08 408.563L1686.6 413.262C1728.65 471.197 1754.89 552.306 1754.89 642.241H1762.89ZM1631.79 953.908C1690.52 932.562 1723.38 890.523 1741.46 835.865C1759.47 781.444 1762.89 714.311 1762.89 642.241H1754.89C1754.89 714.297 1751.43 780.273 1733.87 833.352C1716.39 886.194 1685.02 926.047 1629.06 946.389L1631.79 953.908ZM1647.57 965.464C1647.57 957.227 1640.72 950.873 1632.23 946.579L1628.62 953.718C1636.54 957.725 1639.57 962.051 1639.57 965.464H1647.57ZM1529.92 969.464H1643.57V961.464H1529.92V969.464ZM1416.27 969.464H1529.92V961.464H1416.27V969.464ZM1427.61 946.579C1419.12 950.873 1412.27 957.227 1412.27 965.464H1420.27C1420.27 962.051 1423.29 957.725 1431.22 953.718L1427.61 946.579ZM1299.67 731.039C1307.42 835.304 1335.39 920.227 1428.05 953.908L1430.78 946.389C1342.9 914.446 1315.36 834.123 1307.65 730.446L1299.67 731.039ZM1285.41 739.857C1292.41 741.565 1299.53 738.9 1306.08 733.929L1301.24 727.556C1295.64 731.809 1291 732.985 1287.3 732.085L1285.41 739.857ZM1272.13 601.297C1263.72 635.791 1260.63 668.293 1262.55 693.018C1263.5 705.358 1265.72 715.993 1269.3 724.021C1272.85 731.987 1278.08 738.07 1285.41 739.857L1287.3 732.085C1283.44 731.143 1279.69 727.696 1276.6 720.763C1273.54 713.892 1271.44 704.262 1270.52 692.401C1268.69 668.727 1271.63 637.095 1279.9 603.192L1272.13 601.297ZM1322.55 494.126C1312.93 503.195 1303.3 517.91 1294.63 536.227C1285.93 554.611 1278.08 576.882 1272.13 601.297L1279.9 603.192C1285.74 579.239 1293.42 557.487 1301.87 539.649C1310.34 521.745 1319.46 508.04 1328.04 499.947L1322.55 494.126ZM1359.54 418.967C1344.4 441.759 1331.56 467.58 1321.53 495.692L1329.06 498.381C1338.89 470.837 1351.44 445.607 1366.2 423.394L1359.54 418.967ZM1366.87 421.071C1366.83 419.594 1366.81 418.113 1366.81 416.626H1358.81C1358.81 418.185 1358.83 419.74 1358.87 421.29L1366.87 421.071ZM1366.81 416.626C1366.81 361.827 1394.43 313.478 1436.53 284.742L1432.02 278.135C1387.83 308.297 1358.81 359.072 1358.81 416.626H1366.81ZM1438.26 281.156C1438.21 280.383 1437.99 277.739 1437.41 274.921C1437.12 273.515 1436.72 271.958 1436.15 270.522C1435.62 269.173 1434.78 267.496 1433.39 266.271L1428.11 272.283C1428.08 272.254 1428.34 272.519 1428.71 273.454C1429.05 274.303 1429.34 275.373 1429.58 276.533C1430.05 278.847 1430.24 281.089 1430.28 281.721L1438.26 281.156ZM1433.39 266.271C1431.76 264.84 1429.97 264.53 1429.19 264.367L1427.56 272.2C1427.78 272.246 1427.92 272.275 1428.04 272.304C1428.15 272.332 1428.2 272.349 1428.22 272.357C1428.24 272.363 1428.22 272.358 1428.19 272.34C1428.16 272.32 1428.13 272.299 1428.11 272.283L1433.39 266.271ZM1429.19 264.367C1428.53 264.23 1428.37 264.179 1428.22 264.104C1428.13 264.059 1427.87 263.912 1427.43 263.341C1426.44 262.033 1424.96 259.02 1423.19 252.086L1415.44 254.063C1417.26 261.201 1419.05 265.532 1421.06 268.18C1422.13 269.587 1423.3 270.571 1424.58 271.228C1425.81 271.854 1426.96 272.075 1427.56 272.2L1429.19 264.367ZM1423.19 252.086C1422.19 248.182 1422.15 243.073 1422.82 237.33C1423.48 231.644 1424.81 225.62 1426.35 220.024C1427.88 214.438 1429.6 209.35 1431.02 205.557C1431.72 203.66 1432.35 202.105 1432.83 200.988C1433.07 200.427 1433.26 199.999 1433.4 199.704C1433.6 199.3 1433.59 199.373 1433.43 199.594L1426.97 194.872C1426.64 195.325 1426.36 195.894 1426.2 196.224C1425.99 196.664 1425.74 197.209 1425.47 197.836C1424.93 199.094 1424.26 200.771 1423.52 202.762C1422.03 206.744 1420.24 212.059 1418.63 217.907C1417.03 223.745 1415.6 230.186 1414.87 236.402C1414.16 242.56 1414.09 248.788 1415.44 254.063L1423.19 252.086ZM1434.13 197.982C1434.1 198.116 1434.01 198.579 1433.71 199.114C1433.4 199.645 1432.5 200.873 1430.72 201.074L1429.83 193.124C1428.01 193.328 1427.08 194.581 1426.75 195.157C1426.42 195.737 1426.31 196.265 1426.27 196.484L1434.13 197.982ZM1430.72 201.074C1429.98 201.157 1429.41 201.003 1429.19 200.935C1428.93 200.854 1428.74 200.763 1428.66 200.722C1428.5 200.639 1428.44 200.585 1428.5 200.632C1428.61 200.714 1428.86 200.913 1429.26 201.276C1430.04 201.984 1431.15 203.083 1432.49 204.526C1435.18 207.399 1438.67 211.474 1442.2 216.15C1445.74 220.832 1449.26 226.05 1452.03 231.214C1454.83 236.43 1456.74 241.339 1457.28 245.451L1465.21 244.403C1464.48 238.906 1462.08 233.01 1459.08 227.428C1456.05 221.796 1452.28 216.225 1448.59 211.33C1444.89 206.429 1441.21 202.14 1438.34 199.065C1436.91 197.533 1435.64 196.262 1434.64 195.354C1434.15 194.91 1433.66 194.49 1433.2 194.16C1432.99 194.001 1432.68 193.793 1432.33 193.61C1432.15 193.519 1431.88 193.391 1431.54 193.288C1431.25 193.198 1430.62 193.035 1429.83 193.124L1430.72 201.074ZM1457.28 245.451C1458.22 252.545 1457.96 255.893 1457.53 257.477C1457.34 258.168 1457.14 258.405 1457.08 258.479C1456.97 258.604 1456.84 258.71 1456.28 259.081L1460.7 265.747C1461.21 265.409 1462.2 264.775 1463.11 263.738C1464.05 262.65 1464.77 261.303 1465.24 259.599C1466.12 256.393 1466.18 251.706 1465.21 244.403L1457.28 245.451ZM1456.28 259.081C1455.61 259.525 1454.07 260.477 1453.09 262.412L1460.22 266.03C1460.21 266.051 1460.19 266.081 1460.17 266.112C1460.15 266.141 1460.13 266.151 1460.15 266.14C1460.16 266.125 1460.21 266.089 1460.3 266.022C1460.4 265.949 1460.51 265.873 1460.7 265.747L1456.28 259.081ZM1453.09 262.412C1451.97 264.62 1452.02 267.325 1452.19 269.211L1460.16 268.486C1460.09 267.735 1460.08 267.111 1460.13 266.629C1460.17 266.117 1460.26 265.967 1460.22 266.03L1453.09 262.412ZM1457.89 272.46C1478.64 262.588 1501.86 257.062 1526.37 257.062V249.062C1500.64 249.062 1476.25 254.864 1454.46 265.236L1457.89 272.46ZM1526.37 257.062C1546.85 257.062 1566.42 260.917 1584.39 267.938L1587.3 260.486C1568.41 253.109 1547.86 249.062 1526.37 249.062V257.062ZM1583.38 257.024C1583.38 257.02 1583.49 257.565 1583.23 258.932C1583 260.148 1582.57 261.53 1582.09 262.835L1589.61 265.588C1590.16 264.078 1590.75 262.239 1591.09 260.42C1591.41 258.752 1591.65 256.448 1590.92 254.371L1583.38 257.024ZM1582.94 256.681C1583.11 256.831 1583.21 256.922 1583.3 257.007C1583.39 257.086 1583.42 257.127 1583.44 257.143C1583.45 257.156 1583.44 257.145 1583.42 257.113C1583.4 257.079 1583.38 257.047 1583.38 257.024L1590.92 254.371C1590.2 252.324 1588.8 251.178 1588.19 250.652L1582.94 256.681ZM1581.26 234.931C1579.35 242.045 1578.79 246.699 1579.24 249.993C1579.49 251.743 1580.02 253.172 1580.82 254.375C1581.58 255.522 1582.48 256.28 1582.94 256.681L1588.19 250.652C1587.69 250.21 1587.58 250.088 1587.48 249.95C1587.43 249.868 1587.27 249.608 1587.17 248.897C1586.94 247.27 1587.13 243.918 1588.99 237.007L1581.26 234.931ZM1623.05 188.721C1622.27 188.529 1621.63 188.609 1621.33 188.66C1620.98 188.718 1620.69 188.809 1620.51 188.877C1620.13 189.011 1619.8 189.178 1619.57 189.306C1619.07 189.574 1618.53 189.926 1617.98 190.303C1616.88 191.072 1615.45 192.166 1613.83 193.497C1610.58 196.171 1606.38 199.942 1602.07 204.317C1597.76 208.687 1593.3 213.716 1589.56 218.904C1585.86 224.046 1582.7 229.576 1581.26 234.931L1588.99 237.007C1590.06 233.002 1592.59 228.384 1596.05 223.58C1599.48 218.823 1603.65 214.11 1607.77 209.931C1611.88 205.757 1615.88 202.173 1618.91 199.676C1620.44 198.423 1621.68 197.477 1622.54 196.877C1622.99 196.57 1623.26 196.404 1623.38 196.338C1623.45 196.3 1623.38 196.345 1623.21 196.406C1623.12 196.437 1622.93 196.503 1622.66 196.549C1622.43 196.587 1621.85 196.666 1621.12 196.486L1623.05 188.721Z" fill="#3D3E45" mask="url(#path-41-inside-2_19_19)"/>
<path d="M1473.09 943.526C1488.58 943.526 1502.52 946.175 1512.5 950.38C1517.49 952.485 1521.41 954.94 1524.04 957.563C1526 959.516 1527.2 961.497 1527.68 963.464H1418.51C1418.99 961.497 1420.18 959.516 1422.14 957.563C1424.78 954.94 1428.69 952.485 1433.69 950.38C1443.67 946.175 1457.6 943.526 1473.09 943.526Z" fill="#686E69" stroke="#3D3E45" stroke-width="4"/>
<path d="M1586.75 943.526C1602.24 943.526 1616.17 946.175 1626.15 950.38C1631.15 952.485 1635.06 954.94 1637.7 957.563C1639.66 959.516 1640.85 961.497 1641.33 963.464H1532.16C1532.64 961.497 1533.84 959.516 1535.8 957.563C1538.43 954.94 1542.34 952.485 1547.34 950.38C1557.32 946.175 1571.25 943.526 1586.75 943.526Z" fill="#686E69" stroke="#3D3E45" stroke-width="4"/>
<path fill-rule="evenodd" clip-rule="evenodd" d="M1297.77 759.632C1301.44 759.632 1304.88 758.644 1307.83 756.919L1305.08 721.003C1302.82 720.113 1300.35 719.624 1297.77 719.624C1286.72 719.624 1277.76 728.58 1277.76 739.628C1277.76 750.676 1286.72 759.632 1297.77 759.632Z" fill="#686E69" stroke="#3D3E45" stroke-width="4"/>
<circle cx="1444.68" cy="347.063" r="22.559" fill="white" stroke="#3D3E45" stroke-width="4"/>
<circle cx="1607.02" cy="347.063" r="22.559" fill="white" stroke="#3D3E45" stroke-width="4"/>
<circle cx="1444.68" cy="337.731" r="8.70929" fill="#3D3E45"/>
<circle cx="1607.02" cy="337.731" r="8.70929" fill="#3D3E45"/>
<ellipse cx="1526.37" cy="371.215" rx="7.67314" ry="3.83655" fill="#3D3E45"/>
<ellipse cx="1526.37" cy="359.031" rx="34.1404" ry="12.5907" fill="#3D3E45"/>
<path d="M1507.83 414.952C1509 414.841 1510.39 414.715 1511.9 414.589C1516.36 414.218 1521.96 413.842 1526.37 413.842C1530.79 413.842 1536.39 414.218 1540.85 414.589C1542.36 414.715 1543.74 414.841 1544.92 414.952C1544.05 414.265 1542.83 413.583 1541.28 412.964C1537.56 411.488 1532.29 410.531 1526.37 410.531C1520.45 410.531 1515.18 411.488 1511.47 412.964C1509.91 413.583 1508.7 414.265 1507.83 414.952Z" fill="white" stroke="#3D3E45" stroke-width="4"/>
<line y1="-2" x2="4.98499" y2="-2" transform="matrix(4.37114e-08 -1 -1 -4.37114e-08 1510.89 416.373)" stroke="#3D3E45" stroke-width="4"/>
<line y1="-2" x2="6.05193" y2="-2" transform="matrix(0.00831654 -0.999965 -0.999965 -0.00831654 1517.97 415.764)" stroke="#3D3E45" stroke-width="4"/>
<line y1="-2" x2="6.05193" y2="-2" transform="matrix(0.00831654 -0.999965 -0.999965 -0.00831654 1533.58 415.764)" stroke="#3D3E45" stroke-width="4"/>
<line y1="-2" x2="4.98499" y2="-2" transform="matrix(4.37114e-08 -1 -1 -4.37114e-08 1541.15 416.373)" stroke="#3D3E45" stroke-width="4"/>
<line y1="-0.5" x2="6.42791" y2="-0.5" transform="matrix(4.37114e-08 -1 -1 -4.37114e-08 1525.45 415.419)" stroke="#3D3E45"/>
<path d="M1643.79 378.117L1743.87 342.2" stroke="#3D3E45" stroke-width="5"/>
<path d="M1653.47 399.909L1749.12 391.435" stroke="#3D3E45" stroke-width="5"/>
<path d="M1640.56 421.702L1745.89 445.916" stroke="#3D3E45" stroke-width="5"/>
<path d="M1407.7 378.117L1307.62 342.2" stroke="#3D3E45" stroke-width="5"/>
<path d="M1398.02 399.909L1302.37 391.435" stroke="#3D3E45" stroke-width="5"/>
<path d="M1410.93 421.702L1305.6 445.916" stroke="#3D3E45" stroke-width="5"/>
<ellipse cx="1522.14" cy="681.95" rx="203.108" ry="231.149" fill="#D5D2AA"/>
<path d="M1529.59 591.796C1529.59 591.796 1496.65 621.776 1494.68 617.437C1492.71 613.098 1521.5 562.802 1533.73 563.985C1545.96 565.169 1565.09 609.548 1563.52 615.07C1561.94 620.593 1529.59 591.796 1529.59 591.796Z" fill="#686E69"/>
<path d="M1350.43 647.181C1350.43 647.181 1327.91 677.954 1324.99 676.192C1322.07 674.43 1335.6 633.373 1347.11 629.184C1358.62 624.996 1387.52 643.433 1387.49 647.308C1387.46 651.184 1350.43 647.181 1350.43 647.181Z" fill="#686E69"/>
<path d="M1442.12 617.56C1442.12 617.56 1419.59 648.333 1416.68 646.571C1413.76 644.808 1427.28 603.752 1438.79 599.563C1450.31 595.374 1479.21 613.811 1479.18 617.687C1479.14 621.562 1442.12 617.56 1442.12 617.56Z" fill="#686E69"/>
<path d="M1396.86 563.329C1396.86 563.329 1367.33 590.26 1364.92 587.285C1362.52 584.309 1385.85 542.749 1398.09 541.961C1410.32 541.172 1433.86 571.747 1432.87 576.094C1431.88 580.441 1396.86 563.329 1396.86 563.329Z" fill="#686E69"/>
<path d="M1480.51 514.054C1480.51 514.054 1454.3 540.527 1452.1 537.524C1449.89 534.52 1470.32 493.362 1481.32 492.744C1492.32 492.126 1513.93 522.968 1513.1 527.293C1512.26 531.617 1480.51 514.054 1480.51 514.054Z" fill="#686E69"/>
<path d="M1587.58 511.288C1587.58 511.288 1560.96 534.78 1558.82 532.208C1556.67 529.636 1577.79 493.478 1588.77 492.742C1599.76 492.006 1620.76 518.436 1619.85 522.212C1618.94 525.987 1587.58 511.288 1587.58 511.288Z" fill="#686E69"/>
<path d="M1669.26 564.21C1669.26 564.21 1633.79 562.671 1634.03 559.331C1634.27 555.992 1674.56 544.588 1682.98 551.678C1691.4 558.768 1688.2 592.371 1684.93 594.46C1681.65 596.55 1669.26 564.21 1669.26 564.21Z" fill="#686E69"/>
<path d="M1612.25 596.666C1612.25 596.666 1578.39 607.349 1577.47 604.129C1576.56 600.909 1610.52 576.415 1620.86 580.197C1631.2 583.978 1639.68 616.652 1637.32 619.735C1634.95 622.817 1612.25 596.666 1612.25 596.666Z" fill="#686E69"/>
<path d="M1688.71 637.556C1688.71 637.556 1660.57 638.875 1660.52 636.22C1660.47 633.564 1691.49 621.676 1698.65 626.674C1705.81 631.673 1705.68 658.45 1703.25 660.334C1700.81 662.219 1688.71 637.556 1688.71 637.556Z" fill="#686E69"/>
<path d="M1308.37 758.905C1308.37 758.905 1299.85 688.476 1304.23 643.414C1308.97 594.661 1331.73 525.414 1331.73 525.414" stroke="#3D3E45" stroke-width="4"/>
<path d="M1543.54 69H1539.04V46H1548.04V69.405L1543.63 69.0041L1543.58 69H1543.54Z" fill="#D9D9D9" stroke="#3D3E45" stroke-width="2"/>
<mask id="path-76-inside-3_19_19" fill="white">
<path fill-rule="evenodd" clip-rule="evenodd" d="M1496.53 452.914C1494.92 456.762 1494.04 460.984 1494.04 465.414C1494.04 483.363 1508.59 497.914 1526.54 497.914C1544.49 497.914 1559.04 483.363 1559.04 465.414C1559.04 460.984 1558.15 456.762 1556.55 452.914H1547.3C1549.05 456.019 1550.04 459.6 1550.04 463.414C1550.04 475.288 1540.41 484.914 1528.54 484.914C1516.66 484.914 1507.04 475.288 1507.04 463.414C1507.04 459.6 1508.03 456.019 1509.77 452.914H1496.53Z"/>
</mask>
<path fill-rule="evenodd" clip-rule="evenodd" d="M1496.53 452.914C1494.92 456.762 1494.04 460.984 1494.04 465.414C1494.04 483.363 1508.59 497.914 1526.54 497.914C1544.49 497.914 1559.04 483.363 1559.04 465.414C1559.04 460.984 1558.15 456.762 1556.55 452.914H1547.3C1549.05 456.019 1550.04 459.6 1550.04 463.414C1550.04 475.288 1540.41 484.914 1528.54 484.914C1516.66 484.914 1507.04 475.288 1507.04 463.414C1507.04 459.6 1508.03 456.019 1509.77 452.914H1496.53Z" fill="#2B3C43"/>
<path d="M1496.53 452.914V450.914H1495.2L1494.68 452.144L1496.53 452.914ZM1556.55 452.914L1558.39 452.144L1557.88 450.914H1556.55V452.914ZM1547.3 452.914V450.914H1543.89L1545.56 453.892L1547.3 452.914ZM1509.77 452.914L1511.52 453.892L1513.19 450.914H1509.77V452.914ZM1494.68 452.144C1492.98 456.232 1492.04 460.715 1492.04 465.414H1496.04C1496.04 461.253 1496.87 457.292 1498.38 453.684L1494.68 452.144ZM1492.04 465.414C1492.04 484.468 1507.48 499.914 1526.54 499.914V495.914C1509.69 495.914 1496.04 482.258 1496.04 465.414H1492.04ZM1526.54 499.914C1545.59 499.914 1561.04 484.468 1561.04 465.414H1557.04C1557.04 482.258 1543.38 495.914 1526.54 495.914V499.914ZM1561.04 465.414C1561.04 460.715 1560.1 456.232 1558.39 452.144L1554.7 453.684C1556.21 457.292 1557.04 461.253 1557.04 465.414H1561.04ZM1556.55 450.914H1547.3V454.914H1556.55V450.914ZM1552.04 463.414C1552.04 459.249 1550.95 455.332 1549.05 451.936L1545.56 453.892C1547.14 456.706 1548.04 459.952 1548.04 463.414H1552.04ZM1528.54 486.914C1541.52 486.914 1552.04 476.392 1552.04 463.414H1548.04C1548.04 474.183 1539.31 482.914 1528.54 482.914V486.914ZM1505.04 463.414C1505.04 476.392 1515.56 486.914 1528.54 486.914V482.914C1517.77 482.914 1509.04 474.183 1509.04 463.414H1505.04ZM1508.03 451.936C1506.12 455.332 1505.04 459.249 1505.04 463.414H1509.04C1509.04 459.952 1509.94 456.706 1511.52 453.892L1508.03 451.936ZM1509.77 450.914H1496.53V454.914H1509.77V450.914Z" fill="#3D3E45" mask="url(#path-76-inside-3_19_19)"/>
<path d="M1542.24 69.9787C1498.87 74.0214 1432.65 110.698 1410.3 186.846C1410.3 186.846 1469.89 166.656 1509.53 165.163C1545.07 163.825 1599.94 176.188 1599.94 176.188C1599.94 176.188 1593.15 136.102 1581.93 115.182C1570.41 93.7116 1542.24 69.9787 1542.24 69.9787Z" fill="#607580"/>
<path d="M1599.94 176.188C1599.94 176.188 1628.98 173.869 1647.34 176.188C1664.51 178.356 1690.34 186.846 1690.34 186.846C1690.34 186.846 1668.52 133.646 1647.34 111.875C1614.83 78.4576 1542.24 69.9787 1542.24 69.9787C1542.24 69.9787 1570.41 93.7116 1581.93 115.182C1593.15 136.102 1599.94 176.188 1599.94 176.188Z" fill="#3B525F"/>
<path d="M1690.34 186.846C1690.34 186.846 1720.54 186.044 1738.49 191.991C1753.36 196.919 1773.77 211.102 1773.77 211.102C1773.77 211.102 1733.11 143.681 1693.28 115.182C1642.89 79.1274 1542.24 69.9787 1542.24 69.9787C1542.24 69.9787 1614.83 78.4576 1647.34 111.875C1668.52 133.646 1690.34 186.846 1690.34 186.846Z" fill="#37484E"/>
<path d="M1410.3 186.846C1432.65 110.698 1498.87 74.0214 1542.24 69.9787C1542.24 69.9787 1451.4 77.0143 1399.28 104.892C1349.27 131.639 1291.23 201.914 1291.23 201.914C1291.23 201.914 1326.74 189.783 1350.4 186.846C1373.61 183.965 1410.3 186.846 1410.3 186.846Z" fill="#576B79"/>
<path d="M1363.63 201.914C1386.46 205.981 1416.55 221.024 1416.55 221.024C1416.55 221.024 1458.11 202.185 1486.38 201.914C1512.76 201.661 1552.16 217.349 1552.16 217.349C1552.16 217.349 1587.12 205.872 1610.23 205.957C1632.91 206.039 1667.19 217.349 1667.19 217.349C1667.19 217.349 1684.72 205.328 1701 201.914C1727.37 196.381 1773.77 211.102 1773.77 211.102C1773.77 211.102 1753.36 196.919 1738.49 191.991C1720.54 186.044 1690.34 186.846 1690.34 186.846C1690.34 186.846 1664.51 178.356 1647.34 176.188C1628.98 173.869 1599.94 176.188 1599.94 176.188C1599.94 176.188 1545.07 163.825 1509.53 165.163C1469.89 166.656 1410.3 186.846 1410.3 186.846C1410.3 186.846 1373.61 183.965 1350.4 186.846C1326.74 189.783 1291.23 201.914 1291.23 201.914C1291.23 201.914 1337.06 197.182 1363.63 201.914Z" fill="#37505C"/>
<path d="M1542.24 69.9787C1498.87 74.0214 1432.65 110.698 1410.3 186.846M1542.24 69.9787C1542.24 69.9787 1451.4 77.0143 1399.28 104.892C1349.27 131.639 1291.23 201.914 1291.23 201.914M1542.24 69.9787C1542.24 69.9787 1642.89 79.1274 1693.28 115.182C1733.11 143.681 1773.77 211.102 1773.77 211.102M1542.24 69.9787C1542.24 69.9787 1614.83 78.4576 1647.34 111.875C1668.52 133.646 1690.34 186.846 1690.34 186.846M1542.24 69.9787C1542.24 69.9787 1570.41 93.7116 1581.93 115.182C1593.15 136.102 1599.94 176.188 1599.94 176.188M1410.3 186.846C1410.3 186.846 1373.61 183.965 1350.4 186.846C1326.74 189.783 1291.23 201.914 1291.23 201.914M1410.3 186.846C1410.3 186.846 1469.89 166.656 1509.53 165.163C1545.07 163.825 1599.94 176.188 1599.94 176.188M1599.94 176.188C1599.94 176.188 1628.98 173.869 1647.34 176.188C1664.51 178.356 1690.34 186.846 1690.34 186.846M1690.34 186.846C1690.34 186.846 1720.54 186.044 1738.49 191.991C1753.36 196.919 1773.77 211.102 1773.77 211.102M1773.77 211.102C1773.77 211.102 1727.37 196.381 1701 201.914C1684.72 205.328 1667.19 217.349 1667.19 217.349C1667.19 217.349 1632.91 206.039 1610.23 205.957C1587.12 205.872 1552.16 217.349 1552.16 217.349C1552.16 217.349 1512.76 201.661 1486.38 201.914C1458.11 202.185 1416.55 221.024 1416.55 221.024C1416.55 221.024 1386.46 205.981 1363.63 201.914C1337.06 197.182 1291.23 201.914 1291.23 201.914" stroke="#3D3E45" stroke-width="4"/>
<path d="M1548.04 168.156V463.914H1539.04V166.99C1539.34 167.016 1539.68 167.047 1540.05 167.081C1541.24 167.191 1542.69 167.34 1543.77 167.495C1544.82 167.645 1546.1 167.845 1547.11 168.007C1547.46 168.062 1547.77 168.113 1548.04 168.156Z" fill="#D9D9D9" stroke="#3D3E45" stroke-width="2"/>
<path d="M1544.19 443.404L1537.69 443.404L1537.69 419.914L1550.69 419.914L1550.69 443.844L1544.26 443.406L1544.23 443.404L1544.19 443.404Z" fill="#D9D9D9" stroke="#3D3E45" stroke-width="2"/>
<circle cx="1549.61" cy="461.118" r="27.2041" fill="#686E69" stroke="#3D3E45" stroke-width="4"/>
<path d="M1668.93 461.728C1729.4 492.46 1749.79 595.718 1731.51 623.752C1713.23 651.786 1666.6 624.673 1621.99 595.589C1577.39 566.504 1541.13 485.937 1559.41 457.903C1577.69 429.869 1630.78 442.338 1668.93 461.728Z" fill="#686E69"/>
<path d="M1569.58 444.266C1569.58 444.266 1622.48 434.611 1654.66 448.691C1681.04 460.233 1706.14 488.651 1706.14 488.651" stroke="#3D3E45" stroke-width="4"/>
<path fill-rule="evenodd" clip-rule="evenodd" d="M1611.66 610.414C1627.49 639.449 1646.5 709.607 1622.66 765.414C1593.92 832.702 1507.84 867.273 1466.33 868.676C1427.58 869.986 1401.56 870.865 1427.58 889.753C1481.48 928.876 1476.22 964.265 1476.22 964.265H1642.53C1642.53 964.265 1639.97 957.647 1635.24 954.297C1629.18 950.005 1628.86 948.986 1628.86 948.986C1628.86 948.986 1712.74 929.042 1742.07 815.244C1755.2 764.311 1772.09 627.297 1741.35 518.723C1731.9 485.348 1717.46 460.482 1702.55 434.801C1698.15 427.226 1693.71 419.58 1689.35 411.624C1682.15 322.696 1630.1 287.718 1605.35 274.46L1610.63 262.514L1617.16 261.403C1617.16 261.403 1626.33 251.818 1626.61 228.898C1627.32 210.434 1620.63 197.921 1620.63 197.921C1620.63 197.921 1608.83 200.838 1596.05 219.591C1582.33 239.721 1584.38 248.623 1584.38 248.623L1589.52 254.457L1586.29 266.918C1576.72 261.886 1562.18 258.851 1548.1 257.466V277.135C1624.22 302.955 1655.76 340.268 1660.28 411.624C1663.01 454.849 1680.12 467.482 1693.02 477.011C1703.69 484.895 1714.01 486.324 1696.19 495.414C1621.73 533.414 1558.19 478.414 1558.19 478.414C1558.19 478.414 1546.82 478.036 1540.19 475.414C1533.14 472.624 1524.19 464.414 1524.19 464.414C1524.19 464.414 1528.43 485.216 1535.19 492.414C1541.6 499.232 1554.19 497.914 1554.19 497.914C1554.19 497.914 1561.19 562.914 1611.66 610.414ZM1539.17 274.223V256.8C1511.42 255.386 1490.43 260.5 1522.13 269.219C1528.02 270.842 1533.7 272.507 1539.17 274.223Z" fill="black" fill-opacity="0.2"/>
<ellipse cx="286.025" cy="30" rx="286.025" ry="30" transform="matrix(1 0 0 -1 593 32.9905)" fill="black" fill-opacity="0.1"/>
<mask id="path-87-inside-4_19_19" fill="white">
<path fill-rule="evenodd" clip-rule="evenodd" d="M978.171 774.301C978.205 774.292 978.224 774.244 978.229 774.158C979.332 772.141 988.76 734.959 981.718 717.372C976.319 703.89 973.303 703.668 970.746 703.479C969.89 703.416 969.086 703.356 968.26 702.805C965.754 701.129 964.094 695.167 963.445 692.418C1011.22 665.137 1043.92 614.46 1045.93 555.992C1066.59 527.515 1083.46 493.564 1095.35 455.8C1109.69 435.228 1123.56 402.62 1132.82 364.66C1149.49 296.263 1144.86 236.391 1122.48 230.933C1119.15 230.122 1115.61 230.559 1111.95 232.117C1103.8 130.051 1075.61 49.1414 986.509 16.7557C994.721 12.605 999.66 7.26556 999.66 1.44012H886.006H772.352C772.352 7.26556 777.292 12.605 785.503 16.7557C695.233 49.5681 667.475 132.191 659.748 236.162C653.67 231.55 647.79 229.629 642.441 230.933C620.054 236.391 615.424 296.263 632.099 364.66C643.891 413.027 663.18 452.706 681.383 469.868C691.312 497.696 704.007 523.221 718.957 545.724C718.916 547.237 718.895 548.755 718.895 550.278C718.895 606.455 747.215 656.017 790.357 685.466C790.258 686.871 789.557 695.237 786.835 697.627C786.089 698.282 785.299 698.446 784.458 698.621C781.948 699.143 778.987 699.758 775.399 713.83C770.718 732.187 784.929 767.816 786.285 769.671C786.302 769.756 786.327 769.802 786.362 769.805C787.927 769.982 814.792 741.195 817.332 721.978C819.235 707.58 816.715 705.908 814.579 704.49C813.864 704.015 813.191 703.569 812.742 702.684C812.173 701.56 812.099 699.857 812.263 698.056C833.533 708.178 857.335 713.842 882.459 713.842C903.442 713.842 923.502 709.891 941.936 702.693C942.968 705.508 943.966 709.134 943.237 711.207C942.907 712.143 942.299 712.674 941.652 713.238C939.72 714.923 937.441 716.91 941.211 730.935C946.242 749.656 976.643 774.68 978.171 774.301Z"/>
</mask>
<path fill-rule="evenodd" clip-rule="evenodd" d="M978.171 774.301C978.205 774.292 978.224 774.244 978.229 774.158C979.332 772.141 988.76 734.959 981.718 717.372C976.319 703.89 973.303 703.668 970.746 703.479C969.89 703.416 969.086 703.356 968.26 702.805C965.754 701.129 964.094 695.167 963.445 692.418C1011.22 665.137 1043.92 614.46 1045.93 555.992C1066.59 527.515 1083.46 493.564 1095.35 455.8C1109.69 435.228 1123.56 402.62 1132.82 364.66C1149.49 296.263 1144.86 236.391 1122.48 230.933C1119.15 230.122 1115.61 230.559 1111.95 232.117C1103.8 130.051 1075.61 49.1414 986.509 16.7557C994.721 12.605 999.66 7.26556 999.66 1.44012H886.006H772.352C772.352 7.26556 777.292 12.605 785.503 16.7557C695.233 49.5681 667.475 132.191 659.748 236.162C653.67 231.55 647.79 229.629 642.441 230.933C620.054 236.391 615.424 296.263 632.099 364.66C643.891 413.027 663.18 452.706 681.383 469.868C691.312 497.696 704.007 523.221 718.957 545.724C718.916 547.237 718.895 548.755 718.895 550.278C718.895 606.455 747.215 656.017 790.357 685.466C790.258 686.871 789.557 695.237 786.835 697.627C786.089 698.282 785.299 698.446 784.458 698.621C781.948 699.143 778.987 699.758 775.399 713.83C770.718 732.187 784.929 767.816 786.285 769.671C786.302 769.756 786.327 769.802 786.362 769.805C787.927 769.982 814.792 741.195 817.332 721.978C819.235 707.58 816.715 705.908 814.579 704.49C813.864 704.015 813.191 703.569 812.742 702.684C812.173 701.56 812.099 699.857 812.263 698.056C833.533 708.178 857.335 713.842 882.459 713.842C903.442 713.842 923.502 709.891 941.936 702.693C942.968 705.508 943.966 709.134 943.237 711.207C942.907 712.143 942.299 712.674 941.652 713.238C939.72 714.923 937.441 716.91 941.211 730.935C946.242 749.656 976.643 774.68 978.171 774.301Z" fill="#686E69"/>
<path d="M978.229 774.158L974.236 773.929L974.288 773.03L974.719 772.24L978.229 774.158ZM978.171 774.301L979.135 778.183L979.134 778.183L978.171 774.301ZM981.718 717.372L978.004 718.859V718.859L981.718 717.372ZM970.746 703.479L970.452 707.468L970.746 703.479ZM968.26 702.805L966.037 706.13L966.037 706.13L968.26 702.805ZM963.445 692.418L959.552 693.337L958.865 690.427L961.462 688.944L963.445 692.418ZM1045.93 555.992L1041.93 555.854L1041.97 554.632L1042.69 553.642L1045.93 555.992ZM1095.35 455.8L1091.54 454.599L1091.72 454.015L1092.07 453.512L1095.35 455.8ZM1132.82 364.66L1136.7 365.607L1132.82 364.66ZM1122.48 230.933L1123.42 227.047H1123.42L1122.48 230.933ZM1111.95 232.117L1113.52 235.798L1108.41 237.974L1107.97 232.435L1111.95 232.117ZM986.509 16.7557L985.143 20.515L976.454 17.3566L984.705 13.1859L986.509 16.7557ZM999.66 1.44012V-2.55988H1003.66V1.44012H999.66ZM772.352 1.44012H768.352V-2.55988H772.352V1.44012ZM785.503 16.7557L787.307 13.1859L795.558 17.3566L786.869 20.515L785.503 16.7557ZM659.748 236.162L663.737 236.459L663.191 243.797L657.33 239.349L659.748 236.162ZM642.441 230.933L643.388 234.819H643.388L642.441 230.933ZM632.099 364.66L628.213 365.607L632.099 364.66ZM681.383 469.868L684.127 466.957L684.827 467.617L685.15 468.523L681.383 469.868ZM718.957 545.724L722.289 543.511L722.99 544.566L722.956 545.833L718.957 545.724ZM790.357 685.466L792.612 682.162L794.509 683.457L794.347 685.748L790.357 685.466ZM786.835 697.627L784.196 694.621L786.835 697.627ZM784.458 698.621L783.645 694.705H783.645L784.458 698.621ZM775.399 713.83L779.275 714.818V714.818L775.399 713.83ZM786.285 769.671L789.514 767.31L790.046 768.038L790.215 768.923L786.285 769.671ZM786.362 769.805L785.915 773.78L785.915 773.78L786.362 769.805ZM817.332 721.978L813.366 721.454V721.454L817.332 721.978ZM814.579 704.49L816.791 701.157L816.791 701.157L814.579 704.49ZM812.742 702.684L809.175 704.492L809.175 704.492L812.742 702.684ZM812.263 698.056L808.279 697.693L808.8 691.978L813.982 694.444L812.263 698.056ZM941.936 702.693L940.481 698.967L944.286 697.481L945.692 701.316L941.936 702.693ZM943.237 711.207L947.01 712.533L947.01 712.533L943.237 711.207ZM941.652 713.238L944.281 716.253V716.253L941.652 713.238ZM941.211 730.935L937.348 731.974L941.211 730.935ZM982.223 774.387C982.21 774.609 982.168 775.148 981.917 775.765C981.667 776.379 980.906 777.743 979.135 778.183L977.207 770.419C975.47 770.85 974.736 772.186 974.506 772.752C974.274 773.321 974.244 773.793 974.236 773.929L982.223 774.387ZM985.431 715.885C987.454 720.939 988.206 727.121 988.298 733.321C988.391 739.578 987.815 746.151 986.99 752.148C986.165 758.156 985.08 763.66 984.128 767.803C983.653 769.874 983.206 771.624 982.835 772.942C982.651 773.598 982.479 774.171 982.326 774.635C982.211 774.983 982.008 775.584 981.739 776.076L974.719 772.24C974.588 772.48 974.589 772.553 974.729 772.127C974.832 771.816 974.969 771.366 975.134 770.778C975.462 769.608 975.878 767.985 976.331 766.012C977.237 762.066 978.276 756.798 979.065 751.059C979.855 745.31 980.384 739.164 980.299 733.44C980.213 727.659 979.502 722.599 978.004 718.859L985.431 715.885ZM971.041 699.49C971.65 699.535 972.822 699.604 974.119 700.064C975.479 700.547 976.764 701.37 978.008 702.625C980.348 704.988 982.692 709.046 985.431 715.885L978.004 718.859C975.344 712.216 973.481 709.423 972.325 708.256C971.82 707.747 971.534 707.636 971.442 707.603C971.285 707.547 971.121 707.518 970.452 707.468L971.041 699.49ZM970.483 699.479C970.463 699.466 970.432 699.449 970.396 699.434C970.362 699.42 970.345 699.417 970.362 699.421C970.384 699.426 970.438 699.436 970.552 699.449C970.676 699.463 970.814 699.473 971.041 699.49L970.452 707.468C969.653 707.409 967.841 707.336 966.037 706.13L970.483 699.479ZM967.338 691.499C967.643 692.791 968.169 694.757 968.875 696.541C969.229 697.433 969.592 698.188 969.943 698.757C970.324 699.372 970.536 699.515 970.483 699.479L966.037 706.13C964.731 705.257 963.796 704.026 963.14 702.966C962.455 701.859 961.893 700.638 961.437 699.487C960.525 697.184 959.896 694.793 959.552 693.337L967.338 691.499ZM961.462 688.944C1008.08 662.324 1039.97 612.884 1041.93 555.854L1049.92 556.129C1047.87 616.036 1014.37 667.949 965.429 695.892L961.462 688.944ZM1042.69 553.642C1063.08 525.546 1079.76 491.991 1091.54 454.599L1099.17 457.001C1087.16 495.138 1070.11 529.484 1049.16 558.341L1042.69 553.642ZM1092.07 453.512C1106.04 433.472 1119.75 401.367 1128.93 363.712L1136.7 365.607C1127.38 403.873 1113.34 436.985 1098.63 458.087L1092.07 453.512ZM1128.93 363.712C1137.2 329.81 1140.14 298.178 1138.31 274.503C1137.39 262.643 1135.29 253.012 1132.23 246.141C1129.14 239.209 1125.39 235.762 1121.53 234.819L1123.42 227.047C1130.75 228.834 1135.98 234.918 1139.54 242.883C1143.12 250.911 1145.33 261.546 1146.28 273.886C1148.2 298.611 1145.11 331.113 1136.7 365.607L1128.93 363.712ZM1121.53 234.819C1119.21 234.254 1116.57 234.501 1113.52 235.798L1110.39 228.437C1114.66 226.617 1119.08 225.989 1123.42 227.047L1121.53 234.819ZM1107.97 232.435C1099.84 130.699 1071.88 52.044 985.143 20.515L987.876 12.9963C1079.33 46.2388 1107.77 129.402 1115.94 231.799L1107.97 232.435ZM984.705 13.1859C992.632 9.17908 995.66 4.85345 995.66 1.44012H1003.66C1003.66 9.67767 996.81 16.0309 988.314 20.3255L984.705 13.1859ZM999.66 5.44012H886.006V-2.55988H999.66V5.44012ZM886.006 5.44012H772.352V-2.55988H886.006V5.44012ZM776.352 1.44012C776.352 4.85345 779.381 9.17908 787.307 13.1859L783.698 20.3255C775.202 16.0309 768.352 9.67767 768.352 1.44012H776.352ZM786.869 20.515C698.989 52.4586 671.442 132.781 663.737 236.459L655.759 235.866C663.508 131.6 691.476 46.6775 784.136 12.9963L786.869 20.515ZM657.33 239.349C651.725 235.096 647.082 233.919 643.388 234.819L641.493 227.047C648.499 225.339 655.614 228.004 662.166 232.976L657.33 239.349ZM643.388 234.819C639.523 235.762 635.78 239.209 632.689 246.141C629.625 253.012 627.527 262.643 626.61 274.503C624.779 298.178 627.72 329.81 635.985 363.712L628.213 365.607C619.803 331.113 616.721 298.611 618.633 273.886C619.588 261.546 621.802 250.911 625.382 242.883C628.934 234.918 634.164 228.834 641.493 227.047L643.388 234.819ZM635.985 363.712C641.825 387.665 649.51 409.417 657.953 427.255C666.426 445.159 675.543 458.865 684.127 466.957L678.639 472.778C669.02 463.709 659.391 448.995 650.722 430.677C642.021 412.293 634.165 390.022 628.213 365.607L635.985 363.712ZM685.15 468.523C694.978 496.067 707.531 521.297 722.289 543.511L715.625 547.938C700.483 525.145 687.646 499.325 677.615 471.212L685.15 468.523ZM722.956 545.833C722.915 547.31 722.895 548.792 722.895 550.278H714.895C714.895 548.719 714.916 547.164 714.959 545.615L722.956 545.833ZM722.895 550.278C722.895 605.077 750.515 653.426 792.612 682.162L788.102 688.77C743.915 658.607 714.895 607.832 714.895 550.278H722.895ZM794.347 685.748C794.292 686.521 794.077 689.165 793.498 691.983C793.208 693.389 792.807 694.947 792.241 696.382C791.71 697.731 790.869 699.408 789.474 700.633L784.196 694.621C784.162 694.651 784.43 694.386 784.798 693.45C785.133 692.601 785.423 691.531 785.662 690.371C786.138 688.057 786.322 685.815 786.367 685.184L794.347 685.748ZM789.474 700.633C787.843 702.065 786.057 702.374 785.272 702.537L783.645 694.705C783.867 694.658 784.002 694.63 784.123 694.6C784.235 694.572 784.288 694.555 784.308 694.547C784.324 694.542 784.308 694.546 784.276 694.565C784.242 694.584 784.214 694.605 784.196 694.621L789.474 700.633ZM785.272 702.537C784.615 702.674 784.456 702.725 784.309 702.8C784.221 702.845 783.952 702.992 783.518 703.563C782.525 704.871 781.043 707.885 779.275 714.818L771.523 712.842C773.343 705.703 775.136 701.373 777.148 698.724C778.216 697.318 779.383 696.334 780.668 695.677C781.894 695.05 783.047 694.829 783.645 694.705L785.272 702.537ZM779.275 714.818C778.279 718.722 778.236 723.832 778.907 729.574C779.571 735.26 780.9 741.284 782.435 746.88C783.968 752.466 785.687 757.554 787.102 761.347C787.809 763.244 788.434 764.799 788.912 765.916C789.153 766.477 789.347 766.905 789.49 767.2C789.685 767.604 789.676 767.531 789.514 767.31L783.057 772.032C782.726 771.58 782.446 771.011 782.286 770.68C782.074 770.241 781.829 769.695 781.56 769.069C781.02 767.81 780.348 766.134 779.606 764.143C778.121 760.16 776.325 754.845 774.721 748.997C773.119 743.159 771.687 736.718 770.961 730.503C770.242 724.344 770.178 718.116 771.523 712.842L779.275 714.818ZM790.215 768.923C790.189 768.789 790.097 768.325 789.793 767.791C789.491 767.259 788.588 766.031 786.81 765.831L785.915 773.78C784.101 773.576 783.168 772.323 782.84 771.747C782.51 771.168 782.398 770.639 782.356 770.42L790.215 768.923ZM786.81 765.831C786.066 765.747 785.5 765.901 785.28 765.969C785.015 766.05 784.829 766.141 784.749 766.183C784.589 766.265 784.524 766.32 784.589 766.272C784.701 766.191 784.949 765.992 785.348 765.628C786.128 764.92 787.234 763.821 788.581 762.379C791.265 759.506 794.759 755.43 798.289 750.754C801.823 746.073 805.343 740.855 808.118 735.69C810.92 730.475 812.823 725.566 813.366 721.454L821.297 722.502C820.571 727.998 818.164 733.894 815.165 739.476C812.139 745.108 808.369 750.679 804.674 755.574C800.974 760.475 797.3 764.764 794.427 767.84C792.996 769.372 791.727 770.642 790.727 771.55C790.238 771.995 789.745 772.415 789.291 772.745C789.072 772.903 788.767 773.112 788.414 773.294C788.237 773.385 787.966 773.513 787.628 773.616C787.334 773.707 786.707 773.87 785.915 773.78L786.81 765.831ZM813.366 721.454C814.304 714.359 814.049 711.011 813.613 709.428C813.423 708.736 813.228 708.5 813.163 708.425C813.054 708.3 812.926 708.194 812.367 707.823L816.791 701.157C817.3 701.495 818.287 702.129 819.192 703.167C820.141 704.255 820.858 705.602 821.327 707.305C822.209 710.511 822.263 715.198 821.297 722.502L813.366 721.454ZM812.367 707.823C811.699 707.38 810.156 706.428 809.175 704.492L816.31 700.875C816.299 700.854 816.281 700.823 816.256 700.792C816.233 700.763 816.22 700.753 816.233 700.765C816.249 700.779 816.292 700.815 816.385 700.882C816.487 700.955 816.601 701.032 816.791 701.157L812.367 707.823ZM809.175 704.492C808.055 702.284 808.107 699.58 808.279 697.693L816.246 698.419C816.178 699.169 816.17 699.794 816.212 700.275C816.257 700.788 816.342 700.937 816.31 700.875L809.175 704.492ZM813.982 694.444C834.727 704.316 857.942 709.842 882.459 709.842V717.842C856.728 717.842 832.34 712.04 810.544 701.668L813.982 694.444ZM882.459 709.842C902.936 709.842 922.503 705.987 940.481 698.967L943.391 706.418C924.501 713.795 903.948 717.842 882.459 717.842V709.842ZM939.463 709.88C939.462 709.884 939.575 709.339 939.316 707.972C939.086 706.756 938.659 705.374 938.18 704.069L945.692 701.316C946.245 702.827 946.832 704.665 947.177 706.484C947.493 708.152 947.741 710.456 947.01 712.533L939.463 709.88ZM939.023 710.223C939.195 710.074 939.299 709.983 939.39 709.897C939.473 709.819 939.511 709.777 939.525 709.761C939.536 709.748 939.525 709.76 939.506 709.792C939.486 709.825 939.471 709.858 939.463 709.88L947.01 712.533C946.291 714.58 944.885 715.726 944.281 716.253L939.023 710.223ZM937.348 731.974C935.435 724.859 934.876 720.206 935.331 716.912C935.573 715.161 936.107 713.732 936.905 712.529C937.667 711.383 938.563 710.625 939.023 710.223L944.281 716.253C943.775 716.694 943.662 716.816 943.57 716.954C943.516 717.036 943.354 717.296 943.255 718.007C943.031 719.634 943.216 722.987 945.073 729.897L937.348 731.974ZM979.134 778.183C978.361 778.375 977.717 778.296 977.414 778.245C977.066 778.186 976.781 778.095 976.593 778.028C976.219 777.893 975.889 777.727 975.652 777.598C975.158 777.33 974.615 776.978 974.071 776.602C972.962 775.832 971.537 774.739 969.918 773.407C966.667 770.734 962.464 766.962 958.155 762.587C953.851 758.218 949.384 753.188 945.648 748C941.945 742.859 938.787 737.328 937.348 731.974L945.073 729.897C946.15 733.903 948.679 738.521 952.139 743.324C955.566 748.082 959.738 752.795 963.854 756.974C967.966 761.148 971.963 764.731 974.999 767.228C976.524 768.482 977.764 769.427 978.629 770.027C979.073 770.335 979.345 770.5 979.467 770.566C979.537 770.604 979.466 770.559 979.296 770.498C979.211 770.468 979.015 770.402 978.742 770.356C978.515 770.317 977.933 770.239 977.207 770.419L979.134 778.183Z" fill="#3D3E45" mask="url(#path-87-inside-4_19_19)"/>
<path d="M829.179 23.3784C844.671 23.3784 858.602 20.7294 868.585 16.5239C873.581 14.4195 877.495 11.9647 880.129 9.34094C882.089 7.38864 883.283 5.40734 883.763 3.44019H774.595C775.075 5.40734 776.269 7.38864 778.229 9.34094C780.863 11.9647 784.777 14.4195 789.773 16.5239C799.756 20.7294 813.687 23.3784 829.179 23.3784Z" fill="#686E69" stroke="#3D3E45" stroke-width="4"/>
<path d="M942.833 23.3784C958.325 23.3784 972.256 20.7294 982.24 16.5239C987.236 14.4195 991.149 11.9647 993.783 9.34094C995.744 7.38864 996.937 5.40734 997.417 3.44019H888.25C888.729 5.40734 889.923 7.38864 891.883 9.34094C894.518 11.9647 898.431 14.4195 903.427 16.5239C913.41 20.7294 927.341 23.3784 942.833 23.3784Z" fill="#686E69" stroke="#3D3E45" stroke-width="4"/>
<path fill-rule="evenodd" clip-rule="evenodd" d="M653.854 207.679C657.524 207.679 660.963 208.667 663.919 210.392L661.167 246.309C658.902 247.198 656.435 247.687 653.854 247.687C642.807 247.687 633.85 238.731 633.85 227.683C633.85 216.635 642.807 207.679 653.854 207.679Z" fill="#686E69" stroke="#3D3E45" stroke-width="4"/>
<path fill-rule="evenodd" clip-rule="evenodd" d="M1114.98 207.272C1126.03 207.272 1134.98 216.228 1134.98 227.276C1134.98 238.324 1126.03 247.28 1114.98 247.28C1113.87 247.28 1112.78 247.19 1111.72 247.017L1107.79 208.604C1110.02 207.744 1112.44 207.272 1114.98 207.272Z" fill="#686E69" stroke="#3D3E45" stroke-width="4"/>
<circle cx="24.559" cy="24.559" r="22.559" transform="matrix(1 0 0 -1 776.21 644.4)" fill="white" stroke="#3D3E45" stroke-width="4"/>
<circle cx="24.559" cy="24.559" r="22.559" transform="matrix(1 0 0 -1 938.551 644.4)" fill="white" stroke="#3D3E45" stroke-width="4"/>
<circle cx="8.70929" cy="8.70929" r="8.70929" transform="matrix(1 0 0 -1 792.06 628.551)" fill="#3D3E45"/>
<circle cx="8.70929" cy="8.70929" r="8.70929" transform="matrix(1 0 0 -1 954.401 628.551)" fill="#3D3E45"/>
<ellipse cx="7.67314" cy="3.83655" rx="7.67314" ry="3.83655" transform="matrix(1 0 0 -1 874.786 599.526)" fill="#3D3E45"/>
<ellipse cx="34.1404" cy="12.5907" rx="34.1404" ry="12.5907" transform="matrix(1 0 0 -1 848.319 620.464)" fill="#3D3E45"/>
<path d="M879.572 539.266C880.465 539.091 881.45 538.99 882.5 538.99C883.55 538.99 884.535 539.091 885.428 539.266C884.415 539.195 883.406 539.148 882.5 539.148C881.594 539.148 880.585 539.195 879.572 539.266Z" fill="white" stroke="#3D3E45" stroke-width="4"/>
<path d="M999.874 588.788L1099.96 624.705" stroke="#3D3E45" stroke-width="5"/>
<path d="M1009.56 566.995L1105.2 575.47" stroke="#3D3E45" stroke-width="5"/>
<path d="M996.645 545.202L1101.98 520.988" stroke="#3D3E45" stroke-width="5"/>
<path d="M763.788 588.788L663.703 624.705" stroke="#3D3E45" stroke-width="5"/>
<path d="M754.102 566.995L658.457 575.47" stroke="#3D3E45" stroke-width="5"/>
<path d="M767.016 545.202L661.686 520.988" stroke="#3D3E45" stroke-width="5"/>
<ellipse cx="203.108" cy="231.149" rx="203.108" ry="231.149" transform="matrix(1 0 0 -1 675.119 516.103)" fill="#D5D2AA"/>
<path d="M885.678 375.108C885.678 375.108 852.739 345.128 850.766 349.467C848.794 353.807 877.591 404.102 889.82 402.919C902.049 401.735 921.181 357.357 919.603 351.834C918.025 346.311 885.678 375.108 885.678 375.108Z" fill="#686E69"/>
<path d="M706.518 319.723C706.518 319.723 683.995 288.95 681.076 290.712C678.157 292.474 691.682 333.531 703.196 337.72C714.71 341.909 743.611 323.472 743.578 319.596C743.545 315.721 706.518 319.723 706.518 319.723Z" fill="#686E69"/>
<path d="M798.204 349.345C798.204 349.345 775.681 318.571 772.762 320.334C769.843 322.096 783.367 363.153 794.881 367.341C806.395 371.53 835.296 353.093 835.264 349.218C835.231 345.342 798.204 349.345 798.204 349.345Z" fill="#686E69"/>
<path d="M752.945 403.576C752.945 403.576 723.413 376.644 721.011 379.62C718.609 382.596 741.938 424.155 754.174 424.944C766.41 425.732 789.948 395.157 788.955 390.81C787.963 386.464 752.945 403.576 752.945 403.576Z" fill="#686E69"/>
<path d="M836.595 452.85C836.595 452.85 810.388 426.377 808.184 429.381C805.981 432.384 826.405 473.542 837.407 474.16C848.409 474.778 870.017 443.936 869.183 439.612C868.35 435.287 836.595 452.85 836.595 452.85Z" fill="#686E69"/>
<path d="M943.666 455.617C943.666 455.617 917.047 432.125 914.903 434.697C912.76 437.268 933.874 473.427 944.86 474.162C955.846 474.898 976.844 448.468 975.935 444.692C975.026 440.917 943.666 455.617 943.666 455.617Z" fill="#686E69"/>
<path d="M1025.34 402.694C1025.34 402.694 989.874 404.234 990.114 407.573C990.353 410.913 1030.64 422.316 1039.07 415.226C1047.49 408.137 1044.29 374.533 1041.01 372.444C1037.74 370.355 1025.34 402.694 1025.34 402.694Z" fill="#686E69"/>
<path d="M968.334 370.238C968.334 370.238 934.476 359.556 933.559 362.776C932.643 365.996 966.603 390.489 976.944 386.707C987.285 382.926 995.764 350.253 993.403 347.17C991.041 344.087 968.334 370.238 968.334 370.238Z" fill="#686E69"/>
<path d="M1044.79 329.348C1044.79 329.348 1016.66 328.029 1016.61 330.684C1016.56 333.34 1047.58 345.229 1054.74 340.23C1061.9 335.231 1061.77 308.455 1059.33 306.57C1056.9 304.685 1044.79 329.348 1044.79 329.348Z" fill="#686E69"/>
<path d="M664.458 208C664.458 208 655.938 278.428 660.316 323.49C665.053 372.244 687.816 441.49 687.816 441.49" stroke="#3D3E45" stroke-width="4"/>
<path d="M1107.63 208C1107.63 208 1116.15 278.428 1111.77 323.49C1107.03 372.244 1084.27 441.49 1084.27 441.49" stroke="#3D3E45" stroke-width="4"/>
<path d="M1066.9 275.1C1039.14 209.837 1008.74 174.592 949.579 134.304C893 95.7713 729.968 116.274 783.871 77.1511C837.773 38.0285 832.513 2.63977 832.513 2.63977H998.818C998.818 2.63977 996.264 9.25781 991.534 12.6078C985.474 16.8991 985.145 17.9182 985.145 17.9182C985.145 17.9182 1069.03 37.8622 1098.36 151.661C1101.93 165.512 1105.49 184.343 1108.58 208.623C1121.86 200.615 1144.13 217.218 1132.57 240.145C1151.16 279.722 1138.93 329.613 1131.77 368.069C1130.24 376.292 1111.45 437.875 1093.41 455.114C1081.18 498.335 1064.8 520.352 1045.64 555.281C1078.48 457.777 1098.4 349.132 1066.9 275.1Z" fill="black" fill-opacity="0.2"/>
<path d="M874.012 683.49C854.106 683.49 830.012 707.49 830.012 707.49C830.012 707.49 837.672 710.323 842.512 711.49C854.937 714.487 873.512 700.99 873.512 700.99C873.512 700.99 884.315 704.65 891.512 705.49C905.61 707.137 927.512 700.49 927.512 700.49C927.512 700.49 939.403 699.633 936.512 697.99C932.094 695.482 923.512 688.49 912.512 693.99C909.08 695.706 901.012 695.49 901.012 695.49C901.012 695.49 887.012 683.49 874.012 683.49Z" fill="black" fill-opacity="0.2"/>
<path d="M880.528 740.557L879.93 741.358C879.816 741.274 879.721 741.165 879.652 741.041L880.528 740.557ZM880.528 740.557C879.93 741.358 879.93 741.359 879.931 741.359L879.932 741.36L879.933 741.361L879.938 741.364L879.948 741.372C879.955 741.377 879.964 741.383 879.974 741.39C879.994 741.404 880.02 741.422 880.052 741.441C880.114 741.481 880.199 741.531 880.303 741.584C880.511 741.691 880.807 741.815 881.172 741.898C881.922 742.068 882.935 742.053 884.027 741.423C884.644 741.067 885.12 740.526 885.482 739.989C885.849 739.444 886.137 738.846 886.357 738.307C886.577 737.766 886.738 737.262 886.843 736.894C886.896 736.709 886.936 736.557 886.962 736.449C886.976 736.395 886.986 736.352 886.993 736.322L887.001 736.285L887.003 736.275L887.004 736.271L887.005 736.27L887.005 736.269C887.005 736.269 887.005 736.269 886.028 736.057L887.005 736.269C887.066 735.987 887.002 735.692 886.83 735.46C886.83 735.46 886.83 735.46 886.83 735.46L886.83 735.46L886.828 735.458L886.82 735.447L886.786 735.401C886.756 735.36 886.712 735.298 886.654 735.218C886.538 735.058 886.371 734.822 886.166 734.526C885.755 733.934 885.194 733.099 884.595 732.134C883.384 730.182 882.071 727.778 881.487 725.777C881.024 724.188 880.779 722.028 880.654 720.215C880.593 719.332 880.561 718.55 880.545 717.983C881.093 717.944 881.864 717.891 882.806 717.832C884.786 717.709 887.521 717.561 890.54 717.463C896.611 717.265 903.728 717.271 908.206 718.042C913.772 719.002 922.644 717.849 929.053 716.036C932.231 715.137 934.998 714.024 936.453 712.805C937.153 712.218 937.856 711.342 937.638 710.256C937.431 709.224 936.485 708.549 935.416 708.076C931.784 706.469 930.401 703.556 929.006 700.615C928.975 700.551 928.945 700.488 928.915 700.424C928.22 698.961 927.477 697.432 926.379 696.254C925.233 695.025 923.729 694.201 921.594 694.059C920.816 694.007 919.341 694.193 917.704 694.455C916.017 694.725 914.019 695.1 912.111 695.478C910.2 695.857 908.372 696.241 907.021 696.53C906.346 696.675 905.79 696.796 905.402 696.881C905.346 696.893 905.294 696.904 905.246 696.915C905.126 696.826 904.979 696.718 904.807 696.593C904.283 696.213 903.523 695.676 902.567 695.04C900.657 693.767 897.96 692.095 894.817 690.494C888.579 687.317 880.379 684.317 873.034 685.53C865.926 686.705 862.457 688.231 859.44 690.818C858.045 692.015 856.76 693.428 855.275 695.061C855.195 695.148 855.115 695.236 855.035 695.325C853.436 697.082 851.552 699.134 848.962 701.574C846.994 703.428 845.1 705.213 843.351 706.82C842.32 707.767 840.933 708.041 839.294 707.908C837.645 707.774 835.911 707.244 834.328 706.755L834.247 706.73C833.226 706.414 832.2 706.097 831.4 706.004C830.994 705.957 830.501 705.946 830.051 706.125C829.516 706.337 829.148 706.776 829.031 707.361C828.946 707.787 829.048 708.186 829.178 708.494C829.311 708.81 829.509 709.118 829.734 709.41C830.185 709.994 830.837 710.63 831.607 711.28C833.157 712.587 835.318 714.061 837.695 715.438C840.076 716.816 842.704 718.113 845.198 719.056C847.667 719.99 850.101 720.614 852.057 720.556C855.512 720.454 861.668 720.031 866.94 719.635C869.581 719.437 872.007 719.245 873.772 719.103C874.457 719.048 875.042 719 875.503 718.962C875.501 718.991 875.5 719.019 875.499 719.049C875.463 719.818 875.42 720.892 875.392 722.114C875.335 724.546 875.334 727.606 875.566 730.009C875.785 732.285 876.837 735.072 877.782 737.216C878.261 738.304 878.727 739.257 879.073 739.939C879.247 740.279 879.39 740.553 879.491 740.742C879.542 740.837 879.581 740.911 879.609 740.961L879.64 741.019L879.649 741.035L879.651 741.039L879.652 741.04L879.652 741.041C879.652 741.041 879.652 741.041 880.528 740.557Z" fill="#3E820E" stroke="#16540C" stroke-width="2" stroke-linejoin="round"/>
<path d="M903.544 699.277C903.544 699.277 900.415 703.404 896.452 706.334C892.574 709.202 883.338 713.622 883.338 713.622" stroke="#16540C" stroke-linejoin="round"/>
<path d="M922.356 695.054C924.755 695.534 926.392 698.181 926.392 698.181C926.392 698.181 913.89 705.479 905.37 709.071C895.718 713.14 879.295 718.033 879.824 717.239C880.824 715.739 892.322 710.249 898.266 705.258C907.082 697.856 903.37 698.409 905.37 697.909C907.37 697.409 919.856 694.554 922.356 695.054Z" fill="black" fill-opacity="0.2"/>
<path d="M893.257 690.847C893.257 690.847 872.181 699.812 876.025 697.421C878.627 695.802 879.17 686.519 881.704 686.8C886.579 687.342 893.257 690.847 893.257 690.847Z" fill="black" fill-opacity="0.2"/>
</g>
<defs>
<linearGradient id="paint0_linear_19_19" x1="957.063" y1="0" x2="957.063" y2="960" gradientUnits="userSpaceOnUse">
<stop offset="0.186" stop-color="#D9D9D9" stop-opacity="0.6"/>
<stop offset="1" stop-color="#737373" stop-opacity="0.2"/>
</linearGradient>
<clipPath id="clip0_19_19">
<rect width="1920" height="960" rx="400" fill="white"/>
</clipPath>
</defs>
</svg>
